<?xml version="1.0" encoding="UTF-8"?>
<svg xmlns="http://www.w3.org/2000/svg" xmlns:xlink="http://www.w3.org/1999/xlink" xmlns:svgjs="http://svgjs.dev/svgjs" version="1.1" width="2000" height="313" viewBox="0 0 2000 313">
  <g transform="matrix(1,0,0,1,-1.2121112547492885,0.5471097935785849)">
    <svg xmlns="http://www.w3.org/2000/svg" xmlns:xlink="http://www.w3.org/1999/xlink" viewBox="0 0 396 62" data-background-color="#ffffff" preserveAspectRatio="xMidYMid meet" height="313" width="2000">
      <g id="tight-bounds" transform="matrix(1,0,0,1,0.23999802844036822,-0.10837306495022858)">
        <svg viewBox="0 0 395.52 62.21674101950408" height="62.21674101950408" width="395.52">
          <g>
            <svg viewBox="0 0 510.83581588760984 80.35634016122191" height="62.21674101950408" width="395.52">
              <g transform="matrix(1,0,0,1,0,11.105688112006792)">
                <svg viewBox="0 0 395.52 58.144963937208324" height="58.144963937208324" width="395.52">
                  <g id="textblocktransform">
                    <svg viewBox="0 0 395.52 58.144963937208324" height="58.144963937208324" width="395.52" id="textblock">
                      <g>
                        <svg viewBox="0 0 395.52 58.144963937208324" height="58.144963937208324" width="395.52">
                          <g transform="matrix(1,0,0,1,0,0)">
                            <svg width="395.52" viewBox="0.75 -31.700000762939453 235.6699981689453 34.650001525878906" height="58.144963937208324" data-palette-color="#364f84">
                              <path d="M9.35-1.25L9.35-1.25Q4.95 2.15 2.9 2.15L2.9 2.15Q1.8 2.15 1.28 1.07 0.75 0 0.75-1.25L0.75-1.25Q0.75-3.65 2.78-8.45 4.8-13.25 6.65-13.25L6.65-13.25Q7.6-13.25 8.28-9.5 8.95-5.75 9.65-4.05L9.65-4.05Q13.05-7.65 19.5-16.05L19.5-16.05Q27.6-26.7 30.25-27.7L30.25-27.7Q31.15-28.05 32.1-28.05 33.05-28.05 33.68-27.65 34.3-27.25 34.3-26.65L34.3-26.65Q34.3-25.8 32.85-25.65L32.85-25.65Q31.1-24.7 27.45-21.05L27.45-21.05Q23.8-17.5 21.6-14.4L21.6-14.4Q16.25-6.95 10.6-2.25L10.6-2.25Q13.4 1.9 19.4 1.9L19.4 1.9Q20.05 1.9 21.35 1.8L21.35 1.8Q35.25 0.5 41.05-10.25L41.05-10.25Q43.4-14.55 43.4-18.75 43.4-22.95 40.35-26.3L40.35-26.3Q37.9-29.05 35.02-29.7 32.15-30.35 29.15-30.35L29.15-30.35Q21.45-30.35 14.95-26.8L14.95-26.8Q8.1-23.05 8.1-18.4L8.1-18.4Q8.1-17.15 8.78-16.35 9.45-15.55 9.7-15.45L9.7-15.45 9.4-15.45Q8.1-15.7 7.1-16.75L7.1-16.75Q6-18.05 6-19.5L6-19.5Q6-24.5 12.28-28.1 18.55-31.7 27-31.7L27-31.7Q30.9-31.7 35-30.8 39.1-29.9 42.45-26.5L42.45-26.5Q46.3-22.5 46.3-17.45L46.3-17.45Q46.3-13.7 44.1-9.7L44.1-9.7Q40.3-2.8 32.75 0.4L32.75 0.4Q26.7 2.95 19.7 2.95 12.7 2.95 9.35-1.25ZM2.55-1.45L2.55-1.45Q2.55 0.1 3.15 1.25L3.15 1.25Q5.3 0.3 8.35-2.7L8.35-2.7Q6.9-5.1 6.53-6.48 6.15-7.85 6-10.1L6-10.1Q2.55-5.15 2.55-1.45ZM9.7-15.45L9.7-15.45Q9.75-15.45 9.8-15.5L9.8-15.5Q9.8-15.4 9.78-15.4 9.75-15.4 9.7-15.45ZM59.1-10.6L59.1-10.6Q59.1-8.85 55.75-4.75L55.75-4.75Q51.8 0.1 49 0.1L49 0.1 48.2 0.1Q46.9 0.1 46.15-1.25L46.15-1.25Q45.55-2.2 45.55-3.35L45.55-3.35Q45.55-6.35 49.92-11.78 54.3-17.2 57-17.2L57-17.2Q59.55-17.2 59.55-14.5L59.55-14.5Q59.55-13.8 59.3-12.7L59.3-12.7Q59.35-12.55 60.25-12.55 61.15-12.55 63-13.5L63-13.5Q62.95-12.65 59.05-11.05L59.05-11.05Q59.1-10.85 59.1-10.6ZM55.85-13.2L55.85-13.2Q54.15-13.2 51.02-9.2 47.9-5.2 47.9-3.3 47.9-1.4 49.1-1.4L49.1-1.4Q51.25-1.4 54.55-5.3 57.85-9.2 57.85-10.9L57.85-10.9Q57.05-11.35 55.85-13.2ZM62.05-2.5Q62.05-1 63.7-1 65.35-1 67.95-2.75 70.55-4.5 73-7.5L73-7.5Q73.6-8.3 73.95-8.3 74.3-8.3 74.3-8L74.3-8Q74.3-7.7 72.25-5.4L72.25-5.4Q67.25 0.1 63.9 0.1L63.9 0.1Q62.25 0.1 61.1-0.68 59.95-1.45 59.95-3.08 59.95-4.7 60.8-6.85L60.8-6.85Q62.25-10.25 65.45-15.4L65.45-15.4Q71.3-24.9 73.75-24.9L73.75-24.9Q74.25-24.9 74.77-24.53 75.3-24.15 75.35-23.7L75.35-23.7Q74.2-22.15 70.92-17.75 67.65-13.35 66.4-11.43 65.15-9.5 64.52-8.55 63.9-7.6 63.6-7.08 63.3-6.55 62.9-5.7L62.9-5.7Q62.05-4 62.05-2.5ZM76.04 0.65L76.04 0.65Q75.49 0.65 75.04 0.5L75.04 0.5Q71.84-0.4 71.84-3.1L71.84-3.1Q71.84-6.6 76.24-11.2 80.64-15.8 84.14-15.8L84.14-15.8Q85.29-15.8 86.02-15.18 86.74-14.55 86.74-13.48 86.74-12.4 86.09-11.23 85.44-10.05 84.14-10.05 82.84-10.05 82.84-10.85L82.84-10.85Q82.84-11.4 83.52-12.53 84.19-13.65 84.19-13.73 84.19-13.8 84.04-13.8L84.04-13.8Q82.64-13.65 80.22-11.8 77.79-9.95 76.89-8.7L76.89-8.7 74.94-5.85Q74.44-5.05 74.22-3.95 73.99-2.85 73.99-2.3 73.99-1.75 74.62-1.05 75.24-0.35 76.39-0.35L76.39-0.35Q78.89-0.35 82.59-3.28 86.29-6.2 88.29-8.85L88.29-8.85Q88.54-9.15 88.89-9.15 89.24-9.15 89.24-8.95 89.24-8.75 88.99-8.45L88.99-8.45Q86.24-4.8 82.42-2.08 78.59 0.65 76.04 0.65ZM97.24-20.4Q97.99-20.4 98.67-19.93 99.34-19.45 99.34-18.8 99.34-18.15 98.72-17.68 98.09-17.2 97.34-17.2 96.59-17.2 95.97-17.75 95.34-18.3 95.34-19L95.34-19Q95.34-20.4 97.24-20.4L97.24-20.4ZM88.19 0.55L88.19 0.55Q85.64 0.55 85.64-2.75L85.64-2.75Q85.64-5.45 88.59-10.23 91.54-15 93.34-15.05L93.34-15.05Q93.84-15.05 94.47-14.65 95.09-14.25 95.09-13.85L95.09-13.85Q94.84-13.5 94.49-13.08 94.14-12.65 93.74-12.15 93.34-11.65 92.64-10.73 91.94-9.8 91.29-8.95L91.29-8.95Q87.54-4.1 87.54-2.27 87.54-0.45 88.79-0.45L88.79-0.45Q89.84-0.45 91.64-1.6L91.64-1.6Q95.84-4.2 98.29-7.3L98.29-7.3Q99.19-8.45 99.52-8.45 99.84-8.45 99.84-8.05 99.84-7.65 98.69-6.45 97.54-5.25 96.87-4.55 96.19-3.85 95.94-3.63 95.69-3.4 95.02-2.78 94.34-2.15 93.99-1.9 93.64-1.65 92.99-1.15 92.34-0.65 91.84-0.43 91.34-0.2 90.69 0.1L90.69 0.1Q89.64 0.55 88.19 0.55ZM116.94-1.25L116.94-1.25Q112.54 2.15 110.49 2.15L110.49 2.15Q109.39 2.15 108.86 1.07 108.34 0 108.34-1.25L108.34-1.25Q108.34-3.65 110.36-8.45 112.39-13.25 114.24-13.25L114.24-13.25Q115.19-13.25 115.86-9.5 116.54-5.75 117.24-4.05L117.24-4.05Q120.64-7.65 127.09-16.05L127.09-16.05Q135.19-26.7 137.84-27.7L137.84-27.7Q138.74-28.05 139.69-28.05 140.64-28.05 141.26-27.65 141.89-27.25 141.89-26.65L141.89-26.65Q141.89-25.8 140.44-25.65L140.44-25.65Q138.69-24.7 135.04-21.05L135.04-21.05Q131.39-17.5 129.19-14.4L129.19-14.4Q123.84-6.95 118.19-2.25L118.19-2.25Q120.99 1.9 126.99 1.9L126.99 1.9Q127.64 1.9 128.94 1.8L128.94 1.8Q142.84 0.5 148.64-10.25L148.64-10.25Q150.99-14.55 150.99-18.75 150.99-22.95 147.94-26.3L147.94-26.3Q145.49-29.05 142.61-29.7 139.74-30.35 136.74-30.35L136.74-30.35Q129.04-30.35 122.54-26.8L122.54-26.8Q115.69-23.05 115.69-18.4L115.69-18.4Q115.69-17.15 116.36-16.35 117.04-15.55 117.29-15.45L117.29-15.45 116.99-15.45Q115.69-15.7 114.69-16.75L114.69-16.75Q113.59-18.05 113.59-19.5L113.59-19.5Q113.59-24.5 119.86-28.1 126.14-31.7 134.59-31.7L134.59-31.7Q138.49-31.7 142.59-30.8 146.69-29.9 150.04-26.5L150.04-26.5Q153.89-22.5 153.89-17.45L153.89-17.45Q153.89-13.7 151.69-9.7L151.69-9.7Q147.89-2.8 140.34 0.4L140.34 0.4Q134.29 2.95 127.29 2.95 120.29 2.95 116.94-1.25ZM110.14-1.45L110.14-1.45Q110.14 0.1 110.74 1.25L110.74 1.25Q112.89 0.3 115.94-2.7L115.94-2.7Q114.49-5.1 114.11-6.48 113.74-7.85 113.59-10.1L113.59-10.1Q110.14-5.15 110.14-1.45ZM117.29-15.45L117.29-15.45Q117.34-15.45 117.39-15.5L117.39-15.5Q117.39-15.4 117.36-15.4 117.34-15.4 117.29-15.45ZM156.18 0.65L156.18 0.65Q155.63 0.65 155.18 0.5L155.18 0.5Q151.98-0.4 151.98-3.1L151.98-3.1Q151.98-6.6 156.38-11.2 160.78-15.8 164.28-15.8L164.28-15.8Q165.43-15.8 166.16-15.18 166.88-14.55 166.88-13.65L166.88-13.65Q166.88-10.85 162.66-8.3 158.43-5.75 155.78-5.75L155.78-5.75Q155.38-5.75 155.08-5.85L155.08-5.85Q154.33-4.5 154.33-3L154.33-3Q154.33-0.4 156.81-0.4 159.28-0.4 163.23-3.75L163.23-3.75Q166.28-6.2 168.43-8.95L168.43-8.95Q168.88-9.55 169.21-9.55 169.53-9.55 169.53-9.25 169.53-8.95 169.13-8.4L169.13-8.4Q166.43-4.85 162.63-2.1 158.83 0.65 156.18 0.65ZM165.63-13.75L165.63-13.75Q165.63-14.35 164.36-14.35 163.08-14.35 160.73-12.4L160.73-12.4Q157.58-9.8 155.83-6.95L155.83-6.95Q156.13-6.85 156.48-6.85L156.48-6.85Q158.38-6.85 161.56-8.88 164.73-10.9 165.53-13.3L165.53-13.3Q165.63-13.55 165.63-13.75ZM168.43-2.5Q168.43-1 170.08-1 171.73-1 174.33-2.75 176.93-4.5 179.38-7.5L179.38-7.5Q179.98-8.3 180.33-8.3 180.68-8.3 180.68-8L180.68-8Q180.68-7.7 178.63-5.4L178.63-5.4Q173.63 0.1 170.28 0.1L170.28 0.1Q168.63 0.1 167.48-0.68 166.33-1.45 166.33-3.08 166.33-4.7 167.18-6.85L167.18-6.85Q168.63-10.25 171.83-15.4L171.83-15.4Q177.68-24.9 180.13-24.9L180.13-24.9Q180.63-24.9 181.16-24.53 181.68-24.15 181.73-23.7L181.73-23.7Q180.58-22.15 177.31-17.75 174.03-13.35 172.78-11.43 171.53-9.5 170.91-8.55 170.28-7.6 169.98-7.08 169.68-6.55 169.28-5.7L169.28-5.7Q168.43-4 168.43-2.5ZM189.48-20.4Q190.23-20.4 190.9-19.93 191.58-19.45 191.58-18.8 191.58-18.15 190.95-17.68 190.33-17.2 189.58-17.2 188.83-17.2 188.2-17.75 187.58-18.3 187.58-19L187.58-19Q187.58-20.4 189.48-20.4L189.48-20.4ZM180.43 0.55L180.43 0.55Q177.88 0.55 177.88-2.75L177.88-2.75Q177.88-5.45 180.83-10.23 183.78-15 185.58-15.05L185.58-15.05Q186.08-15.05 186.7-14.65 187.33-14.25 187.33-13.85L187.33-13.85Q187.08-13.5 186.73-13.08 186.38-12.65 185.98-12.15 185.58-11.65 184.88-10.73 184.18-9.8 183.53-8.95L183.53-8.95Q179.78-4.1 179.78-2.27 179.78-0.45 181.03-0.45L181.03-0.45Q182.08-0.45 183.88-1.6L183.88-1.6Q188.08-4.2 190.53-7.3L190.53-7.3Q191.43-8.45 191.75-8.45 192.08-8.45 192.08-8.05 192.08-7.65 190.93-6.45 189.78-5.25 189.1-4.55 188.43-3.85 188.18-3.63 187.93-3.4 187.25-2.78 186.58-2.15 186.23-1.9 185.88-1.65 185.23-1.15 184.58-0.65 184.08-0.43 183.58-0.2 182.93 0.1L182.93 0.1Q181.88 0.55 180.43 0.55ZM193.28-2.05L193.28-2.05Q191.28-0.65 190.43-0.65L190.43-0.65Q189.28-0.65 189.28-1.9L189.28-1.9Q189.28-2.35 189.58-3 189.88-3.65 190.18-3.65L190.18-3.65Q190.63-3.65 190.38-2.9L190.38-2.9Q190.23-2.15 190.83-2.15 191.43-2.15 192.28-2.75L192.28-2.75 190.38-4.2Q190.28-4.3 190.28-4.55 190.28-4.8 190.78-5.28 191.28-5.75 191.55-5.75 191.83-5.75 193.98-4.05L193.98-4.05Q200.18-11.05 203.08-13.25L203.08-13.25Q199.13-14.45 197.23-14.45L197.23-14.45Q196.68-14.45 196.18-14.38 195.68-14.3 195.1-13.78 194.53-13.25 194.53-12.6 194.53-11.95 195.08-11.53 195.63-11.1 195.63-10.85 195.63-10.6 195.25-10.6 194.88-10.6 194.03-11.6L194.03-11.6Q193.23-12.6 193.23-13.65L193.23-13.65Q193.23-15.4 195.78-15.95L195.78-15.95Q197.13-16.2 198.53-16.2 199.93-16.2 205.43-14.4L205.43-14.4Q206.13-14.8 206.93-14.8L206.93-14.8Q209.03-14.8 209.03-13.55L209.03-13.55Q209.03-13.05 208.38-12.63 207.73-12.2 206.83-12.2 205.93-12.2 205.18-12.55L205.18-12.55Q200.43-9.6 194.98-3.25L194.98-3.25 196.78-1.85Q198.93-0.45 201.78-0.45 204.63-0.45 205.98-1.35 207.33-2.25 207.33-3.65L207.33-3.65Q207.33-4.3 207.08-4.88 206.83-5.45 207.53-5.45L207.53-5.45Q207.78-5.45 208.03-4.88 208.28-4.3 208.28-3.5L208.28-3.5Q208.28-1.5 206.38-0.2 204.48 1.1 201.48 1.1L201.48 1.1Q198.18 1.1 196.03-0.15L196.03-0.15Q195.18-0.6 193.28-2.05ZM220.07-20.4Q220.82-20.4 221.5-19.93 222.17-19.45 222.17-18.8 222.17-18.15 221.55-17.68 220.92-17.2 220.17-17.2 219.42-17.2 218.8-17.75 218.17-18.3 218.17-19L218.17-19Q218.17-20.4 220.07-20.4L220.07-20.4ZM211.02 0.55L211.02 0.55Q208.47 0.55 208.47-2.75L208.47-2.75Q208.47-5.45 211.42-10.23 214.37-15 216.17-15.05L216.17-15.05Q216.67-15.05 217.3-14.65 217.92-14.25 217.92-13.85L217.92-13.85Q217.67-13.5 217.32-13.08 216.97-12.65 216.57-12.15 216.17-11.65 215.47-10.73 214.77-9.8 214.12-8.95L214.12-8.95Q210.37-4.1 210.37-2.27 210.37-0.45 211.62-0.45L211.62-0.45Q212.67-0.45 214.47-1.6L214.47-1.6Q218.67-4.2 221.12-7.3L221.12-7.3Q222.02-8.45 222.35-8.45 222.67-8.45 222.67-8.05 222.67-7.65 221.52-6.45 220.37-5.25 219.7-4.55 219.02-3.85 218.77-3.63 218.52-3.4 217.85-2.78 217.17-2.15 216.82-1.9 216.47-1.65 215.82-1.15 215.17-0.65 214.67-0.43 214.17-0.2 213.52 0.1L213.52 0.1Q212.47 0.55 211.02 0.55ZM223.07 0.65L223.07 0.65Q222.52 0.65 222.07 0.5L222.07 0.5Q218.87-0.4 218.87-3.1L218.87-3.1Q218.87-6.6 223.27-11.2 227.67-15.8 231.17-15.8L231.17-15.8Q232.32-15.8 233.05-15.18 233.77-14.55 233.77-13.65L233.77-13.65Q233.77-10.85 229.55-8.3 225.32-5.75 222.67-5.75L222.67-5.75Q222.27-5.75 221.97-5.85L221.97-5.85Q221.22-4.5 221.22-3L221.22-3Q221.22-0.4 223.7-0.4 226.17-0.4 230.12-3.75L230.12-3.75Q233.17-6.2 235.32-8.95L235.32-8.95Q235.77-9.55 236.1-9.55 236.42-9.55 236.42-9.25 236.42-8.95 236.02-8.4L236.02-8.4Q233.32-4.85 229.52-2.1 225.72 0.65 223.07 0.65ZM232.52-13.75L232.52-13.75Q232.52-14.35 231.25-14.35 229.97-14.35 227.62-12.4L227.62-12.4Q224.47-9.8 222.72-6.95L222.72-6.95Q223.02-6.85 223.37-6.85L223.37-6.85Q225.27-6.85 228.45-8.88 231.62-10.9 232.42-13.3L232.42-13.3Q232.52-13.55 232.52-13.75Z" opacity="1" transform="matrix(1,0,0,1,0,0)" fill="#364f84" class="wordmark-text-0" data-fill-palette-color="primary" id="text-0"></path>
                            </svg>
                          </g>
                        </svg>
                      </g>
                    </svg>
                  </g>
                </svg>
              </g>
              <g transform="matrix(1,0,0,1,409.2466305064404,0)">
                <svg viewBox="0 0 101.58918538116947 80.35634016122191" height="80.35634016122191" width="101.58918538116947">
                  <g>
                    <svg xmlns="http://www.w3.org/2000/svg" xmlns:xlink="http://www.w3.org/1999/xlink" version="1.1" x="0" y="0" viewBox="8.843999862670898 15.939000129699707 84.31299591064453 66.69099426269531" xml:space="preserve" height="80.35634016122191" width="101.58918538116947" class="icon-icon-0" data-fill-palette-color="accent" id="icon-0">
                      <g fill="#364f84" data-fill-palette-color="accent">
                        <path fill="#364f84" d="M80.652 25.566c-7.938-6.208-18.468-9.627-29.651-9.627s-21.714 3.419-29.653 9.627c-8.063 6.307-12.504 14.73-12.504 23.718 0 8.989 4.441 17.412 12.504 23.719 7.939 6.208 18.469 9.627 29.653 9.627s21.713-3.419 29.651-9.627c8.063-6.307 12.505-14.729 12.505-23.719C93.157 40.296 88.716 31.873 80.652 25.566zM51.001 79.175c-21.34 0-38.702-13.409-38.702-29.891 0-16.481 17.361-29.89 38.702-29.89 21.34 0 38.701 13.409 38.701 29.89C89.702 65.766 72.341 79.175 51.001 79.175z" data-fill-palette-color="accent"></path>
                        <path fill="#364f84" d="M60.384 38.252c-0.077-2.995-1.551-5.301-4.088-6.664-1.748-0.939-4.551-1.514-7.159-1.514-1.011 0-2.043 0.079-3.066 0.234-3.691 0.561-7.023 2.073-9.383 4.259-2.224 2.061-3.028 5.989-1.954 8.139-5.913-2.841-5.805-8.276-5.805-8.276s-2.335 5.666 6.597 11.179c0.742 0.458 1.647 0.707 2.556 0.983 0.418 0.126 0.795 0.23 1.153 0.316 1.688 0.405 3.48 0.611 5.328 0.611 0 0 0 0 0 0 1.277 0 2.58-0.1 3.872-0.296 3.527-0.536 6.817-1.764 9.516-3.553 0.329-0.218 0.656-0.451 0.974-0.691 0.492-0.373 0.949-0.753 1.357-1.131 0.429-0.397 0.821-0.807 1.185-1.224l0.075-0.088c4.908-6.662 1.721-11.32 1.721-11.32S63.992 33.26 60.384 38.252zM48.11 45.087c-2.195 0.333-5.908 0.229-8.039-0.173 6.297-4.377 15.159-3.197 16.395-2.879C54.566 43.493 50.61 44.707 48.11 45.087zM57.24 41.483c-2.675-1.001-5.912-1.292-9.097-0.809-3.49 0.531-6.676 1.925-9.008 3.933-1.238-0.353-2.359-0.819-3.346-1.378l-0.162-0.869c-0.072-0.244-0.042-0.224-0.077-0.451-0.315-2.072 0.613-4.221 2.612-6.052 2.049-1.876 4.959-3.181 8.194-3.671 0.906-0.138 1.82-0.208 2.717-0.208 5.525 0 9.936 2.643 10.488 6.284 0.035 0.228 0.055 0.468 0.058 0.716l0.001 0.332C58.953 40.079 58.161 40.812 57.24 41.483z" data-fill-palette-color="accent"></path>
                      </g>
                    </svg>
                  </g>
                </svg>
              </g>
            </svg>
          </g>
          <defs></defs>
        </svg>
        <rect width="395.52" height="62.21674101950408" fill="none" stroke="none" visibility="hidden"></rect>
      </g>
    </svg>
  </g>
</svg>
