<?xml version="1.0" encoding="UTF-8"?>
<svg xmlns="http://www.w3.org/2000/svg" xmlns:xlink="http://www.w3.org/1999/xlink" xmlns:svgjs="http://svgjs.dev/svgjs" version="1.1" width="2000" height="696" viewBox="0 0 2000 696">
  <g transform="matrix(1,0,0,1,-1.2121212121212466,0.5984753487381909)">
    <svg xmlns="http://www.w3.org/2000/svg" xmlns:xlink="http://www.w3.org/1999/xlink" viewBox="0 0 396 138" data-background-color="#ffffff" preserveAspectRatio="xMidYMid meet" height="696" width="2000">
      <g id="tight-bounds" transform="matrix(1,0,0,1,0.2400000000000091,-0.11866321569809202)">
        <svg viewBox="0 0 395.52 138.23732643139616" height="138.23732643139616" width="395.52">
          <g>
            <svg viewBox="0 0 665.2079315095082 232.49536299765805" height="138.23732643139616" width="395.52">
              <g>
                <svg viewBox="0 0 395.52 232.49536299765805" height="232.49536299765805" width="395.52">
                  <g id="textblocktransform">
                    <svg viewBox="0 0 395.52 232.49536299765805" height="232.49536299765805" width="395.52" id="textblock">
                      <g>
                        <svg viewBox="0 0 395.52 232.49536299765805" height="232.49536299765805" width="395.52">
                          <g transform="matrix(1,0,0,1,0,0)">
                            <svg width="395.52" viewBox="64.8 -31.699999999999996 128.09999999999997 72.3" height="232.49536299765805" data-palette-color="#364f84">
                              <svg></svg>
                              <svg></svg>
                              <g class="wordmark-text-0" data-fill-palette-color="primary" id="text-0">
                                <path transform="translate(78.55,0)" d="M9.35-1.25v0c-2.933 2.267-5.083 3.4-6.45 3.4v0c-0.733 0-1.273-0.36-1.62-1.08-0.353-0.713-0.53-1.487-0.53-2.32v0c0-1.6 0.677-4 2.03-7.2 1.347-3.2 2.637-4.8 3.87-4.8v0c0.633 0 1.177 1.25 1.63 3.75 0.447 2.5 0.903 4.317 1.37 5.45v0c2.267-2.4 5.55-6.4 9.85-12v0c5.4-7.1 8.983-10.983 10.75-11.65v0c0.6-0.233 1.217-0.35 1.85-0.35 0.633 0 1.16 0.133 1.58 0.4 0.413 0.267 0.62 0.6 0.62 1v0c0 0.567-0.483 0.9-1.45 1v0c-1.167 0.633-2.967 2.167-5.4 4.6v0c-2.433 2.367-4.383 4.583-5.85 6.65v0c-3.567 4.967-7.233 9.017-11 12.15v0c1.867 2.767 4.8 4.15 8.8 4.15v0c0.433 0 1.083-0.033 1.95-0.1v0c9.267-0.867 15.833-4.883 19.7-12.05v0c1.567-2.867 2.35-5.7 2.35-8.5 0-2.8-1.017-5.317-3.05-7.55v0c-1.633-1.833-3.41-2.967-5.33-3.4-1.913-0.433-3.87-0.65-5.87-0.65v0c-5.133 0-9.867 1.183-14.2 3.55v0c-4.567 2.5-6.85 5.3-6.85 8.4v0c0 0.833 0.227 1.517 0.68 2.05 0.447 0.533 0.753 0.833 0.92 0.9v0h-0.3c-0.867-0.167-1.633-0.6-2.3-1.3v0c-0.733-0.867-1.1-1.783-1.1-2.75v0c0-3.333 2.093-6.2 6.28-8.6 4.18-2.4 9.087-3.6 14.72-3.6v0c2.6 0 5.267 0.3 8 0.9 2.733 0.6 5.217 2.033 7.45 4.3v0c2.567 2.667 3.85 5.683 3.85 9.05v0c0 2.5-0.733 5.083-2.2 7.75v0c-2.533 4.6-6.317 7.967-11.35 10.1v0c-4.033 1.7-8.383 2.55-13.05 2.55-4.667 0-8.117-1.4-10.35-4.2zM2.55-1.45v0c0 1.033 0.2 1.933 0.6 2.7v0c1.433-0.633 3.167-1.95 5.2-3.95v0c-0.967-1.6-1.573-2.86-1.82-3.78-0.253-0.913-0.43-2.12-0.53-3.62v0c-2.3 3.3-3.45 6.183-3.45 8.65zM9.7-15.45v0c0.033 0 0.067-0.017 0.1-0.05v0c0 0.067-0.007 0.1-0.02 0.1-0.02 0-0.047-0.017-0.08-0.05zM59.1-10.6v0c0 1.167-1.117 3.117-3.35 5.85v0c-2.633 3.233-4.883 4.85-6.75 4.85v0h-0.8c-0.867 0-1.55-0.45-2.05-1.35v0c-0.4-0.633-0.6-1.333-0.6-2.1v0c0-2 1.46-4.81 4.38-8.43 2.913-3.613 5.27-5.42 7.07-5.42v0c1.7 0 2.55 0.9 2.55 2.7v0c0 0.467-0.083 1.067-0.25 1.8v0c0.033 0.1 0.35 0.15 0.95 0.15 0.6 0 1.517-0.317 2.75-0.95v0c-0.033 0.567-1.35 1.383-3.95 2.45v0c0.033 0.133 0.05 0.283 0.05 0.45zM55.85-13.2v0c-1.133 0-2.74 1.333-4.82 4-2.087 2.667-3.13 4.633-3.13 5.9 0 1.267 0.4 1.9 1.2 1.9v0c1.433 0 3.25-1.3 5.45-3.9 2.2-2.6 3.3-4.467 3.3-5.6v0c-0.533-0.3-1.2-1.067-2-2.3zM62.05-2.5c0 1 0.55 1.5 1.65 1.5 1.1 0 2.517-0.583 4.25-1.75 1.733-1.167 3.417-2.75 5.05-4.75v0c0.4-0.533 0.717-0.8 0.95-0.8 0.233 0 0.35 0.1 0.35 0.3v0c0 0.2-0.683 1.067-2.05 2.6v0c-3.333 3.667-6.117 5.5-8.35 5.5v0c-1.1 0-2.033-0.26-2.8-0.78-0.767-0.513-1.15-1.313-1.15-2.4 0-1.08 0.283-2.337 0.85-3.77v0c0.967-2.267 2.517-5.117 4.65-8.55v0c3.9-6.333 6.667-9.5 8.3-9.5v0c0.333 0 0.677 0.123 1.03 0.37 0.347 0.253 0.537 0.53 0.57 0.83v0c-0.767 1.033-2.24 3.017-4.42 5.95-2.187 2.933-3.697 5.04-4.53 6.32-0.833 1.287-1.457 2.247-1.87 2.88-0.42 0.633-0.73 1.123-0.93 1.47-0.2 0.353-0.433 0.813-0.7 1.38v0c-0.567 1.133-0.85 2.2-0.85 3.2zM76.05 0.65v0c-0.367 0-0.7-0.05-1-0.15v0c-2.133-0.6-3.2-1.8-3.2-3.6v0c0-2.333 1.467-5.033 4.4-8.1 2.933-3.067 5.567-4.6 7.9-4.6v0c0.767 0 1.393 0.207 1.88 0.62 0.48 0.42 0.72 0.987 0.72 1.7 0 0.72-0.217 1.47-0.65 2.25-0.433 0.787-1.083 1.18-1.95 1.18-0.867 0-1.3-0.267-1.3-0.8v0c0-0.367 0.227-0.927 0.68-1.68 0.447-0.747 0.67-1.147 0.67-1.2 0-0.047-0.05-0.07-0.15-0.07v0c-0.933 0.1-2.207 0.767-3.82 2-1.62 1.233-2.73 2.267-3.33 3.1v0l-1.95 2.85c-0.333 0.533-0.573 1.167-0.72 1.9-0.153 0.733-0.23 1.283-0.23 1.65 0 0.367 0.21 0.783 0.63 1.25 0.413 0.467 1.003 0.7 1.77 0.7v0c1.667 0 3.733-0.977 6.2-2.93 2.467-1.947 4.367-3.803 5.7-5.57v0c0.167-0.2 0.367-0.3 0.6-0.3 0.233 0 0.35 0.067 0.35 0.2 0 0.133-0.083 0.3-0.25 0.5v0c-1.833 2.433-4.023 4.557-6.57 6.37-2.553 1.82-4.68 2.73-6.38 2.73zM97.25-20.4c0.5 0 0.977 0.157 1.43 0.47 0.447 0.32 0.67 0.697 0.67 1.13 0 0.433-0.207 0.807-0.62 1.12-0.42 0.32-0.88 0.48-1.38 0.48-0.5 0-0.957-0.183-1.37-0.55-0.42-0.367-0.63-0.783-0.63-1.25v0c0-0.933 0.633-1.4 1.9-1.4zM88.2 0.55v0c-1.7 0-2.55-1.1-2.55-3.3v0c0-1.8 0.983-4.293 2.95-7.48 1.967-3.18 3.55-4.787 4.75-4.82v0c0.333 0 0.71 0.133 1.13 0.4 0.413 0.267 0.62 0.533 0.62 0.8v0c-0.167 0.233-0.367 0.49-0.6 0.77-0.233 0.287-0.483 0.597-0.75 0.93-0.267 0.333-0.633 0.807-1.1 1.42-0.467 0.62-0.917 1.213-1.35 1.78v0c-2.5 3.233-3.75 5.46-3.75 6.68 0 1.213 0.417 1.82 1.25 1.82v0c0.7 0 1.65-0.383 2.85-1.15v0c2.8-1.733 5.017-3.633 6.65-5.7v0c0.6-0.767 1.01-1.15 1.23-1.15 0.213 0 0.32 0.133 0.32 0.4 0 0.267-0.383 0.8-1.15 1.6-0.767 0.8-1.373 1.433-1.82 1.9-0.453 0.467-0.763 0.773-0.93 0.92-0.167 0.153-0.473 0.437-0.92 0.85-0.453 0.42-0.797 0.713-1.03 0.88-0.233 0.167-0.567 0.417-1 0.75-0.433 0.333-0.817 0.573-1.15 0.72-0.333 0.153-0.717 0.33-1.15 0.53v0c-0.7 0.3-1.533 0.45-2.5 0.45z" fill="#364f84" fill-rule="nonzero" stroke="none" stroke-width="1" stroke-linecap="butt" stroke-linejoin="miter" stroke-miterlimit="10" stroke-dasharray="" stroke-dashoffset="0" font-family="none" font-weight="none" font-size="none" text-anchor="none" style="mix-blend-mode: normal" data-fill-palette-color="primary" opacity="1"></path>
                                <path transform="translate(64.05,37.65)" d="M9.35-1.25v0c-2.933 2.267-5.083 3.4-6.45 3.4v0c-0.733 0-1.273-0.36-1.62-1.08-0.353-0.713-0.53-1.487-0.53-2.32v0c0-1.6 0.677-4 2.03-7.2 1.347-3.2 2.637-4.8 3.87-4.8v0c0.633 0 1.177 1.25 1.63 3.75 0.447 2.5 0.903 4.317 1.37 5.45v0c2.267-2.4 5.55-6.4 9.85-12v0c5.4-7.1 8.983-10.983 10.75-11.65v0c0.6-0.233 1.217-0.35 1.85-0.35 0.633 0 1.16 0.133 1.58 0.4 0.413 0.267 0.62 0.6 0.62 1v0c0 0.567-0.483 0.9-1.45 1v0c-1.167 0.633-2.967 2.167-5.4 4.6v0c-2.433 2.367-4.383 4.583-5.85 6.65v0c-3.567 4.967-7.233 9.017-11 12.15v0c1.867 2.767 4.8 4.15 8.8 4.15v0c0.433 0 1.083-0.033 1.95-0.1v0c9.267-0.867 15.833-4.883 19.7-12.05v0c1.567-2.867 2.35-5.7 2.35-8.5 0-2.8-1.017-5.317-3.05-7.55v0c-1.633-1.833-3.41-2.967-5.33-3.4-1.913-0.433-3.87-0.65-5.87-0.65v0c-5.133 0-9.867 1.183-14.2 3.55v0c-4.567 2.5-6.85 5.3-6.85 8.4v0c0 0.833 0.227 1.517 0.68 2.05 0.447 0.533 0.753 0.833 0.92 0.9v0h-0.3c-0.867-0.167-1.633-0.6-2.3-1.3v0c-0.733-0.867-1.1-1.783-1.1-2.75v0c0-3.333 2.093-6.2 6.28-8.6 4.18-2.4 9.087-3.6 14.72-3.6v0c2.6 0 5.267 0.3 8 0.9 2.733 0.6 5.217 2.033 7.45 4.3v0c2.567 2.667 3.85 5.683 3.85 9.05v0c0 2.5-0.733 5.083-2.2 7.75v0c-2.533 4.6-6.317 7.967-11.35 10.1v0c-4.033 1.7-8.383 2.55-13.05 2.55-4.667 0-8.117-1.4-10.35-4.2zM2.55-1.45v0c0 1.033 0.2 1.933 0.6 2.7v0c1.433-0.633 3.167-1.95 5.2-3.95v0c-0.967-1.6-1.573-2.86-1.82-3.78-0.253-0.913-0.43-2.12-0.53-3.62v0c-2.3 3.3-3.45 6.183-3.45 8.65zM9.7-15.45v0c0.033 0 0.067-0.017 0.1-0.05v0c0 0.067-0.007 0.1-0.02 0.1-0.02 0-0.047-0.017-0.08-0.05zM48.6 0.65v0c-0.367 0-0.7-0.05-1-0.15v0c-2.133-0.6-3.2-1.8-3.2-3.6v0c0-2.333 1.467-5.033 4.4-8.1 2.933-3.067 5.567-4.6 7.9-4.6v0c0.767 0 1.393 0.207 1.88 0.62 0.48 0.42 0.72 0.93 0.72 1.53v0c0 1.867-1.407 3.65-4.22 5.35-2.82 1.7-5.113 2.55-6.88 2.55v0c-0.267 0-0.5-0.033-0.7-0.1v0c-0.5 0.9-0.75 1.85-0.75 2.85v0c0 1.733 0.827 2.6 2.48 2.6 1.647 0 3.787-1.117 6.42-3.35v0c2.033-1.633 3.767-3.367 5.2-5.2v0c0.3-0.4 0.56-0.6 0.78-0.6 0.213 0 0.32 0.1 0.32 0.3 0 0.2-0.133 0.483-0.4 0.85v0c-1.8 2.367-3.967 4.467-6.5 6.3-2.533 1.833-4.683 2.75-6.45 2.75zM58.05-13.75v0c0-0.4-0.423-0.6-1.27-0.6-0.853 0-2.063 0.65-3.63 1.95v0c-2.1 1.733-3.733 3.55-4.9 5.45v0c0.2 0.067 0.417 0.1 0.65 0.1v0c1.267 0 2.96-0.677 5.08-2.03 2.113-1.347 3.437-2.82 3.97-4.42v0c0.067-0.167 0.1-0.317 0.1-0.45zM60.85-2.5c0 1 0.55 1.5 1.65 1.5 1.1 0 2.517-0.583 4.25-1.75 1.733-1.167 3.417-2.75 5.05-4.75v0c0.4-0.533 0.717-0.8 0.95-0.8 0.233 0 0.35 0.1 0.35 0.3v0c0 0.2-0.683 1.067-2.05 2.6v0c-3.333 3.667-6.117 5.5-8.35 5.5v0c-1.1 0-2.033-0.26-2.8-0.78-0.767-0.513-1.15-1.313-1.15-2.4 0-1.08 0.283-2.337 0.85-3.77v0c0.967-2.267 2.517-5.117 4.65-8.55v0c3.9-6.333 6.667-9.5 8.3-9.5v0c0.333 0 0.677 0.123 1.03 0.37 0.347 0.253 0.537 0.53 0.57 0.83v0c-0.767 1.033-2.24 3.017-4.42 5.95-2.187 2.933-3.697 5.04-4.53 6.32-0.833 1.287-1.457 2.247-1.87 2.88-0.42 0.633-0.73 1.123-0.93 1.47-0.2 0.353-0.433 0.813-0.7 1.38v0c-0.567 1.133-0.85 2.2-0.85 3.2zM81.9-20.4c0.5 0 0.977 0.157 1.43 0.47 0.447 0.32 0.67 0.697 0.67 1.13 0 0.433-0.207 0.807-0.62 1.12-0.42 0.32-0.88 0.48-1.38 0.48-0.5 0-0.957-0.183-1.37-0.55-0.42-0.367-0.63-0.783-0.63-1.25v0c0-0.933 0.633-1.4 1.9-1.4zM72.85 0.55v0c-1.7 0-2.55-1.1-2.55-3.3v0c0-1.8 0.983-4.293 2.95-7.48 1.967-3.18 3.55-4.787 4.75-4.82v0c0.333 0 0.71 0.133 1.13 0.4 0.413 0.267 0.62 0.533 0.62 0.8v0c-0.167 0.233-0.367 0.49-0.6 0.77-0.233 0.287-0.483 0.597-0.75 0.93-0.267 0.333-0.633 0.807-1.1 1.42-0.467 0.62-0.917 1.213-1.35 1.78v0c-2.5 3.233-3.75 5.46-3.75 6.68 0 1.213 0.417 1.82 1.25 1.82v0c0.7 0 1.65-0.383 2.85-1.15v0c2.8-1.733 5.017-3.633 6.65-5.7v0c0.6-0.767 1.01-1.15 1.23-1.15 0.213 0 0.32 0.133 0.32 0.4 0 0.267-0.383 0.8-1.15 1.6-0.767 0.8-1.373 1.433-1.82 1.9-0.453 0.467-0.763 0.773-0.93 0.92-0.167 0.153-0.473 0.437-0.92 0.85-0.453 0.42-0.797 0.713-1.03 0.88-0.233 0.167-0.567 0.417-1 0.75-0.433 0.333-0.817 0.573-1.15 0.72-0.333 0.153-0.717 0.33-1.15 0.53v0c-0.7 0.3-1.533 0.45-2.5 0.45zM85.7-2.05v0c-1.333 0.933-2.283 1.4-2.85 1.4v0c-0.767 0-1.15-0.417-1.15-1.25v0c0-0.3 0.1-0.667 0.3-1.1 0.2-0.433 0.4-0.65 0.6-0.65v0c0.3 0 0.367 0.25 0.2 0.75v0c-0.1 0.5 0.05 0.75 0.45 0.75 0.4 0 0.883-0.2 1.45-0.6v0l-1.9-1.45c-0.067-0.067-0.1-0.183-0.1-0.35 0-0.167 0.167-0.41 0.5-0.73 0.333-0.313 0.593-0.47 0.78-0.47 0.18 0 0.987 0.567 2.42 1.7v0c4.133-4.667 7.167-7.733 9.1-9.2v0c-2.633-0.8-4.583-1.2-5.85-1.2v0c-0.367 0-0.717 0.023-1.05 0.07-0.333 0.053-0.69 0.253-1.07 0.6-0.387 0.353-0.58 0.747-0.58 1.18 0 0.433 0.183 0.79 0.55 1.07 0.367 0.287 0.55 0.513 0.55 0.68 0 0.167-0.123 0.25-0.37 0.25-0.253 0-0.663-0.333-1.23-1v0c-0.533-0.667-0.8-1.35-0.8-2.05v0c0-1.167 0.85-1.933 2.55-2.3v0c0.9-0.167 1.817-0.25 2.75-0.25 0.933 0 3.233 0.6 6.9 1.8v0c0.467-0.267 0.967-0.4 1.5-0.4v0c1.4 0 2.1 0.417 2.1 1.25v0c0 0.333-0.217 0.64-0.65 0.92-0.433 0.287-0.95 0.43-1.55 0.43-0.6 0-1.15-0.117-1.65-0.35v0c-3.167 1.967-6.567 5.067-10.2 9.3v0l1.8 1.4c1.433 0.933 3.1 1.4 5 1.4 1.9 0 3.3-0.3 4.2-0.9 0.9-0.6 1.35-1.367 1.35-2.3v0c0-0.433-0.083-0.843-0.25-1.23-0.167-0.38-0.017-0.57 0.45-0.57v0c0.167 0 0.333 0.19 0.5 0.57 0.167 0.387 0.25 0.847 0.25 1.38v0c0 1.333-0.633 2.433-1.9 3.3-1.267 0.867-2.9 1.3-4.9 1.3v0c-2.2 0-4.017-0.417-5.45-1.25v0c-0.567-0.3-1.483-0.933-2.75-1.9zM112.5-20.4c0.5 0 0.977 0.157 1.43 0.47 0.447 0.32 0.67 0.697 0.67 1.13 0 0.433-0.207 0.807-0.62 1.12-0.42 0.32-0.88 0.48-1.38 0.48-0.5 0-0.957-0.183-1.37-0.55-0.42-0.367-0.63-0.783-0.63-1.25v0c0-0.933 0.633-1.4 1.9-1.4zM103.45 0.55v0c-1.7 0-2.55-1.1-2.55-3.3v0c0-1.8 0.983-4.293 2.95-7.48 1.967-3.18 3.55-4.787 4.75-4.82v0c0.333 0 0.71 0.133 1.13 0.4 0.413 0.267 0.62 0.533 0.62 0.8v0c-0.167 0.233-0.367 0.49-0.6 0.77-0.233 0.287-0.483 0.597-0.75 0.93-0.267 0.333-0.633 0.807-1.1 1.42-0.467 0.62-0.917 1.213-1.35 1.78v0c-2.5 3.233-3.75 5.46-3.75 6.68 0 1.213 0.417 1.82 1.25 1.82v0c0.7 0 1.65-0.383 2.85-1.15v0c2.8-1.733 5.017-3.633 6.65-5.7v0c0.6-0.767 1.01-1.15 1.23-1.15 0.213 0 0.32 0.133 0.32 0.4 0 0.267-0.383 0.8-1.15 1.6-0.767 0.8-1.373 1.433-1.82 1.9-0.453 0.467-0.763 0.773-0.93 0.92-0.167 0.153-0.473 0.437-0.92 0.85-0.453 0.42-0.797 0.713-1.03 0.88-0.233 0.167-0.567 0.417-1 0.75-0.433 0.333-0.817 0.573-1.15 0.72-0.333 0.153-0.717 0.33-1.15 0.53v0c-0.7 0.3-1.533 0.45-2.5 0.45zM115.5 0.65v0c-0.367 0-0.7-0.05-1-0.15v0c-2.133-0.6-3.2-1.8-3.2-3.6v0c0-2.333 1.467-5.033 4.4-8.1 2.933-3.067 5.567-4.6 7.9-4.6v0c0.767 0 1.393 0.207 1.88 0.62 0.48 0.42 0.72 0.93 0.72 1.53v0c0 1.867-1.407 3.65-4.22 5.35-2.82 1.7-5.113 2.55-6.88 2.55v0c-0.267 0-0.5-0.033-0.7-0.1v0c-0.5 0.9-0.75 1.85-0.75 2.85v0c0 1.733 0.827 2.6 2.48 2.6 1.647 0 3.787-1.117 6.42-3.35v0c2.033-1.633 3.767-3.367 5.2-5.2v0c0.3-0.4 0.56-0.6 0.78-0.6 0.213 0 0.32 0.1 0.32 0.3 0 0.2-0.133 0.483-0.4 0.85v0c-1.8 2.367-3.967 4.467-6.5 6.3-2.533 1.833-4.683 2.75-6.45 2.75zM124.95-13.75v0c0-0.4-0.423-0.6-1.27-0.6-0.853 0-2.063 0.65-3.63 1.95v0c-2.1 1.733-3.733 3.55-4.9 5.45v0c0.2 0.067 0.417 0.1 0.65 0.1v0c1.267 0 2.96-0.677 5.08-2.03 2.113-1.347 3.437-2.82 3.97-4.42v0c0.067-0.167 0.1-0.317 0.1-0.45z" fill="#364f84" fill-rule="nonzero" stroke="none" stroke-width="1" stroke-linecap="butt" stroke-linejoin="miter" stroke-miterlimit="10" stroke-dasharray="" stroke-dashoffset="0" font-family="none" font-weight="none" font-size="none" text-anchor="none" style="mix-blend-mode: normal" data-fill-palette-color="primary" opacity="1"></path>
                              </g>
                            </svg>
                          </g>
                        </svg>
                      </g>
                    </svg>
                  </g>
                </svg>
              </g>
              <g transform="matrix(1,0,0,1,420.7765715095082,19.575923704894507)">
                <svg viewBox="0 0 244.43136 193.34351558786904" height="193.34351558786904" width="244.43136">
                  <g>
                    <svg xmlns="http://www.w3.org/2000/svg" xmlns:xlink="http://www.w3.org/1999/xlink" version="1.1" x="0" y="0" viewBox="8.844000000000007 15.938999999999998 84.31299999999999 66.691" xml:space="preserve" height="193.34351558786904" width="244.43136" class="icon-icon-0" data-fill-palette-color="accent" id="icon-0">
                      <g fill="#364f84" data-fill-palette-color="accent">
                        <path fill="#364f84" d="M80.652 25.566c-7.938-6.208-18.468-9.627-29.651-9.627s-21.714 3.419-29.653 9.627c-8.063 6.307-12.504 14.73-12.504 23.718 0 8.989 4.441 17.412 12.504 23.719 7.939 6.208 18.469 9.627 29.653 9.627s21.713-3.419 29.651-9.627c8.063-6.307 12.505-14.729 12.505-23.719C93.157 40.296 88.716 31.873 80.652 25.566zM51.001 79.175c-21.34 0-38.702-13.409-38.702-29.891 0-16.481 17.361-29.89 38.702-29.89 21.34 0 38.701 13.409 38.701 29.89C89.702 65.766 72.341 79.175 51.001 79.175z" data-fill-palette-color="accent"></path>
                        <path fill="#364f84" d="M60.384 38.252c-0.077-2.995-1.551-5.301-4.088-6.664-1.748-0.939-4.551-1.514-7.159-1.514-1.011 0-2.043 0.079-3.066 0.234-3.691 0.561-7.023 2.073-9.383 4.259-2.224 2.061-3.028 5.989-1.954 8.139-5.913-2.841-5.805-8.276-5.805-8.276s-2.335 5.666 6.597 11.179c0.742 0.458 1.647 0.707 2.556 0.983 0.418 0.126 0.795 0.23 1.153 0.316 1.688 0.405 3.48 0.611 5.328 0.611 0 0 0 0 0 0 1.277 0 2.58-0.1 3.872-0.296 3.527-0.536 6.817-1.764 9.516-3.553 0.329-0.218 0.656-0.451 0.974-0.691 0.492-0.373 0.949-0.753 1.357-1.131 0.429-0.397 0.821-0.807 1.185-1.224l0.075-0.088c4.908-6.662 1.721-11.32 1.721-11.32S63.992 33.26 60.384 38.252zM48.11 45.087c-2.195 0.333-5.908 0.229-8.039-0.173 6.297-4.377 15.159-3.197 16.395-2.879C54.566 43.493 50.61 44.707 48.11 45.087zM57.24 41.483c-2.675-1.001-5.912-1.292-9.097-0.809-3.49 0.531-6.676 1.925-9.008 3.933-1.238-0.353-2.359-0.819-3.346-1.378l-0.162-0.869c-0.072-0.244-0.042-0.224-0.077-0.451-0.315-2.072 0.613-4.221 2.612-6.052 2.049-1.876 4.959-3.181 8.194-3.671 0.906-0.138 1.82-0.208 2.717-0.208 5.525 0 9.936 2.643 10.488 6.284 0.035 0.228 0.055 0.468 0.058 0.716l0.001 0.332C58.953 40.079 58.161 40.812 57.24 41.483z" data-fill-palette-color="accent"></path>
                      </g>
                    </svg>
                  </g>
                </svg>
              </g>
            </svg>
          </g>
          <defs></defs>
        </svg>
        <rect width="395.52" height="138.23732643139616" fill="none" stroke="none" visibility="hidden"></rect>
      </g>
    </svg>
  </g>
</svg>
