<?xml version="1.0" encoding="UTF-8"?>
<svg xmlns:xlink="http://www.w3.org/1999/xlink" xmlns="http://www.w3.org/2000/svg" width="124" height="124" id="screenshot-d8e4e9ce-eb1c-8001-8002-88333532e70b" viewBox="0 0 124 124" style="-webkit-print-color-adjust: exact;" fill="none" version="1.1">
  <g id="shape-d8e4e9ce-eb1c-8001-8002-88333532e70b" version="1.0" width="512.000000pt" height="512.000000pt" preserveAspectRatio="xMidYMid meet" rx="0" ry="0" style="fill: rgb(0, 0, 0);">
    <g id="shape-d8e4e9ce-eb1c-8001-8002-88333536ea9d" rx="0" ry="0" style="fill: rgb(0, 0, 0);">
      <g id="shape-d8e4e9ce-eb1c-8001-8002-8833353a5738">
        <g class="fills" id="fills-d8e4e9ce-eb1c-8001-8002-8833353a5738">
          <path stroke="none" rx="0" ry="0" d="M57.277,29.208C44.345,30.177,35.045,32.550,25.551,37.345C9.930,45.241,0.799,57.156,0.073,70.598C-0.266,77.064,1.477,82.392,5.183,86.098C6.975,87.890,8.259,88.786,10.802,90.045C16.711,93.000,23.977,94.211,38.387,94.695C46.452,94.962,76.677,95.010,84.039,94.768C88.762,94.623,89.004,94.598,89.537,94.066C90.263,93.339,90.263,92.273,89.537,91.595L89.004,91.087L60.426,90.990C29.305,90.893,28.142,90.845,21.070,89.464C14.822,88.229,10.874,86.461,7.992,83.579C4.868,80.455,3.778,77.452,3.778,72.051C3.802,67.207,4.650,63.768,7.072,59.045C10.269,52.797,16.372,46.766,24.025,42.286C25.309,41.535,26.398,40.930,26.471,40.930C26.544,40.930,26.641,43.957,26.689,47.638L26.762,54.371L27.440,55.752C29.571,60.111,35.020,61.152,38.605,57.859C40.348,56.260,40.930,54.783,40.930,51.949C40.930,49.552,40.566,48.922,39.138,48.922C37.854,48.922,37.297,49.794,37.297,51.804C37.297,53.596,36.837,54.783,35.844,55.509C34.197,56.720,31.702,56.066,30.782,54.202C30.298,53.184,30.273,52.797,30.273,46.088L30.273,39.041L33.543,37.805C35.335,37.127,36.909,36.570,37.055,36.570C37.200,36.570,37.297,37.878,37.297,40.203C37.297,43.763,37.321,43.884,37.902,44.441C38.653,45.216,39.695,45.241,40.397,44.490C40.905,43.957,40.930,43.715,40.930,39.670L40.930,35.408L43.061,34.899C45.991,34.221,50.423,33.470,52.773,33.277L54.710,33.107L54.783,43.618L54.855,54.129L55.655,55.752C58.319,61.177,65.681,61.177,68.345,55.752L69.145,54.129L69.217,43.618L69.290,33.107L71.227,33.277C73.577,33.470,78.009,34.221,80.939,34.899L83.070,35.408L83.070,44.684C83.070,53.378,83.095,54.080,83.555,55.267C84.112,56.745,85.541,58.295,87.139,59.094C90.481,60.813,95.083,59.142,96.657,55.630C97.214,54.420,97.238,54.105,97.311,47.638C97.359,43.957,97.456,40.930,97.529,40.930C97.602,40.930,98.691,41.535,99.975,42.286C107.628,46.766,113.731,52.797,116.928,59.045C119.350,63.768,120.198,67.207,120.222,72.051C120.222,77.452,119.132,80.455,116.008,83.579C112.520,87.066,106.950,89.149,98.231,90.215C96.512,90.433,94.913,90.699,94.695,90.820C94.453,90.941,94.138,91.353,93.993,91.765C93.751,92.346,93.751,92.588,94.066,93.218C94.284,93.630,94.720,94.017,95.059,94.114C95.785,94.308,101.307,93.605,104.383,92.952C114.603,90.772,120.609,86.388,122.862,79.438C125.187,72.220,123.806,63.114,119.253,55.534C111.019,41.874,93.097,32.066,71.930,29.644C68.951,29.305,59.651,29.014,57.277,29.208ZZM65.342,43.448L65.270,54.226L64.543,54.977C63.090,56.502,60.910,56.502,59.457,54.977L58.730,54.226L58.658,43.448L58.585,32.695L62.000,32.695L65.415,32.695L65.342,43.448ZZM90.457,37.805L93.727,39.041L93.727,46.088C93.727,52.700,93.702,53.184,93.218,54.153C92.322,56.042,89.803,56.720,88.156,55.509C86.752,54.468,86.703,54.177,86.703,44.974C86.703,39.380,86.776,36.570,86.945,36.570C87.091,36.570,88.665,37.127,90.457,37.805ZZ" style="fill: rgb(245, 245, 245); fill-opacity: 1;"></path>
        </g>
      </g>
      <g id="shape-d8e4e9ce-eb1c-8001-8002-8833353b487d">
        <g class="fills" id="fills-d8e4e9ce-eb1c-8001-8002-8833353b487d">
          <path stroke="none" rx="0" ry="0" d="M106.829,53.911C106.223,54.686,106.199,55.025,106.684,55.921C107.265,57.084,108.427,57.253,109.348,56.309C110.123,55.558,110.147,54.516,109.396,53.814C108.597,53.063,107.459,53.112,106.829,53.911ZZ" style="fill: rgb(245, 245, 245); fill-opacity: 1;"></path>
        </g>
      </g>
      <g id="shape-d8e4e9ce-eb1c-8001-8002-8833353c6169">
        <g class="fills" id="fills-d8e4e9ce-eb1c-8001-8002-8833353c6169">
          <path stroke="none" rx="0" ry="0" d="M111.600,58.706C110.922,59.215,110.680,60.111,111.043,60.934C111.794,62.751,114.313,62.170,114.313,60.208C114.313,58.803,112.666,57.883,111.600,58.706ZZ" style="fill: rgb(245, 245, 245); fill-opacity: 1;"></path>
        </g>
      </g>
      <g id="shape-d8e4e9ce-eb1c-8001-8002-8833353efa49">
        <g class="fills" id="fills-d8e4e9ce-eb1c-8001-8002-8833353efa49">
          <path stroke="none" rx="0" ry="0" d="M104.649,59.481C103.826,60.547,104.020,61.564,105.158,62.145C106.974,63.090,108.694,60.765,107.216,59.384C106.417,58.634,105.279,58.682,104.649,59.481ZZ" style="fill: rgb(245, 245, 245); fill-opacity: 1;"></path>
        </g>
      </g>
      <g id="shape-d8e4e9ce-eb1c-8001-8002-8833353fe3a7">
        <g class="fills" id="fills-d8e4e9ce-eb1c-8001-8002-8833353fe3a7">
          <path stroke="none" rx="0" ry="0" d="M15.185,74.787C14.604,75.417,14.652,76.846,15.258,77.379C15.912,77.984,17.098,77.936,17.728,77.306C18.358,76.677,18.406,75.490,17.801,74.836C17.220,74.206,15.742,74.182,15.185,74.787ZZ" style="fill: rgb(245, 245, 245); fill-opacity: 1;"></path>
        </g>
      </g>
      <g id="shape-d8e4e9ce-eb1c-8001-8002-88333540c3e7">
        <g class="fills" id="fills-d8e4e9ce-eb1c-8001-8002-88333540c3e7">
          <path stroke="none" rx="0" ry="0" d="M8.864,76.337C7.508,78.275,10.002,80.406,11.552,78.614C12.230,77.815,12.255,77.258,11.601,76.434C10.947,75.587,9.421,75.538,8.864,76.337ZZ" style="fill: rgb(245, 245, 245); fill-opacity: 1;"></path>
        </g>
      </g>
      <g id="shape-d8e4e9ce-eb1c-8001-8002-883335420430">
        <g class="fills" id="fills-d8e4e9ce-eb1c-8001-8002-883335420430">
          <path stroke="none" rx="0" ry="0" d="M14.095,81.060C13.635,81.254,13.054,82.513,13.248,82.998C13.514,83.748,14.362,84.523,14.919,84.523C15.234,84.523,15.742,84.281,16.081,83.966C17.704,82.538,16.154,80.237,14.095,81.060ZZ" style="fill: rgb(245, 245, 245); fill-opacity: 1;"></path>
        </g>
      </g>
    </g>
  </g>
</svg>
