<?xml version="1.0" encoding="UTF-8"?>
<svg xmlns:xlink="http://www.w3.org/1999/xlink" xmlns="http://www.w3.org/2000/svg" width="124" height="124" id="screenshot-d8e4e9ce-eb1c-8001-8002-871d8ada02b2" viewBox="-0 -0 124 124" style="-webkit-print-color-adjust: exact;" fill="none" version="1.1">
  <g id="shape-d8e4e9ce-eb1c-8001-8002-871d8ada02b2" rx="0" ry="0" style="fill: rgb(0, 0, 0);">
    <g id="shape-d8e4e9ce-eb1c-8001-8002-871d8ada02b4">
      <g class="fills" id="fills-d8e4e9ce-eb1c-8001-8002-871d8ada02b4">
        <path rx="0" ry="0" d="M98.167,15.500L93.000,15.500L93.000,5.167L82.667,5.167L82.667,15.500L41.333,15.500L41.333,5.167L31.000,5.167L31.000,15.500L25.833,15.500C20.150,15.500,15.500,20.098,15.500,25.833L15.500,98.167C15.500,103.902,20.150,108.500,25.833,108.500L98.167,108.500C103.902,108.500,108.500,103.902,108.500,98.167L108.500,25.833C108.500,20.098,103.902,15.500,98.167,15.500ZM98.167,98.167L25.833,98.167L25.833,46.500L98.167,46.500L98.167,98.167ZM98.167,36.167L25.833,36.167L25.833,25.833L98.167,25.833M36.167,56.833L62.000,56.833L62.000,82.667L36.167,82.667" style="fill: rgb(245, 245, 245); fill-opacity: 1;"></path>
      </g>
    </g>
  </g>
</svg>
