<?xml version="1.0" encoding="UTF-8"?>
<svg xmlns:xlink="http://www.w3.org/1999/xlink" xmlns="http://www.w3.org/2000/svg" width="143.649" height="143.649" id="screenshot-d8e4e9ce-eb1c-8001-8002-88323402b002" viewBox="-9.824 -9.824 143.649 143.649" style="-webkit-print-color-adjust: exact;" fill="none" version="1.1">
  <g id="shape-d8e4e9ce-eb1c-8001-8002-88323402b002" version="1.0" width="512.000000pt" height="512.000000pt" preserveAspectRatio="xMidYMid meet" rx="0" ry="0" style="fill: rgb(0, 0, 0);">
    <g id="shape-d8e4e9ce-eb1c-8001-8002-883234032d9d" rx="0" ry="0" style="fill: rgb(0, 0, 0);">
      <g id="shape-d8e4e9ce-eb1c-8001-8002-8832340403ec">
        <g class="fills" id="fills-d8e4e9ce-eb1c-8001-8002-8832340403ec">
          <path stroke="none" rx="0" ry="0" d="M32.302,4.452C24.103,6.906,18.556,9.901,13.052,14.806C7.935,19.397,3.475,25.766,0.911,32.145C-7.111,52.201,-0.271,75.095,17.429,87.467C23.092,91.412,28.824,93.795,35.844,95.115L38.489,95.607L39.626,97.595C42.019,101.821,45.133,105.674,48.856,109.076C50.848,110.889,55.503,114.273,57.002,114.968L57.834,115.362L58.668,113.813L59.506,112.289L56.576,110.321C52.201,107.404,49.394,104.874,46.448,101.139C44.998,99.329,42.858,96.116,42.975,95.947C42.991,95.896,44.137,95.841,45.459,95.805C48.990,95.748,55.382,94.621,58.581,93.515C68.336,90.123,75.817,84.574,81.701,76.380C87.683,68.046,90.593,58.606,90.445,48.008C90.390,44.624,89.263,38.232,88.109,34.894C87.691,33.640,87.350,32.544,87.389,32.488C87.531,32.316,92.249,33.549,94.350,34.310C105.889,38.522,115.086,47.303,119.614,58.481C122.039,64.423,123.188,71.918,122.610,78.119C121.494,90.341,115.457,101.292,105.870,108.565C94.855,116.950,80.991,119.493,67.778,115.552L64.324,114.513L63.655,116.156C62.865,118.090,62.608,117.890,67.040,119.174C82.459,123.636,98.988,119.885,110.948,109.194C116.065,104.603,120.525,98.234,123.085,91.831C126.189,84.054,127.196,74.703,125.775,66.641C122.377,47.370,107.183,32.195,87.900,28.832L85.492,28.421L84.698,26.987C81.660,21.473,77.610,16.777,72.411,12.676C68.673,9.745,69.080,9.821,67.906,11.675L66.926,13.226L69.528,15.152C80.233,23.003,86.565,35.486,86.785,49.145C86.906,56.526,84.580,64.954,80.557,71.565C70.609,87.952,50.933,95.749,32.489,90.591C23.746,88.149,15.484,82.572,10.033,75.369C-1.788,59.795,-1.667,38.723,10.330,23.082C19.492,11.162,35.153,4.860,50.148,7.060C52.800,7.453,57.518,8.687,59.669,9.587C60.464,9.914,61.231,10.221,61.415,10.287C61.627,10.373,62.000,9.840,62.437,8.828C62.846,7.944,63.154,7.177,63.145,7.129C63.103,6.891,58.820,5.334,56.261,4.630C51.351,3.282,46.517,2.782,41.323,3.034C38.764,3.165,34.120,3.886,32.302,4.452ZZ" style="fill: rgb(245, 245, 245); fill-opacity: 1;"></path>
        </g>
      </g>
      <g id="shape-d8e4e9ce-eb1c-8001-8002-88323404c156">
        <g class="fills" id="fills-d8e4e9ce-eb1c-8001-8002-88323404c156">
          <path stroke="none" rx="0" ry="0" d="M35.054,19.780C33.781,20.373,32.663,21.284,31.818,22.490C28.666,26.931,31.282,33.258,36.675,34.274C40.644,35.025,44.755,32.259,45.475,28.394C46.419,23.285,42.403,18.779,37.322,19.257C36.551,19.344,35.534,19.572,35.054,19.780ZZM39.397,23.072C41.298,23.671,42.538,26.379,41.722,28.171C41.126,29.530,40.336,30.210,39.049,30.585C36.821,31.199,34.634,29.814,34.243,27.596C33.692,24.471,36.378,22.129,39.397,23.072ZZ" style="fill: rgb(245, 245, 245); fill-opacity: 1;"></path>
        </g>
      </g>
      <g id="shape-d8e4e9ce-eb1c-8001-8002-883234058f49">
        <g class="fills" id="fills-d8e4e9ce-eb1c-8001-8002-883234058f49">
          <path stroke="none" rx="0" ry="0" d="M53.006,22.148L53.321,23.937L55.229,23.600L57.137,23.264L56.822,21.475L56.506,19.686L54.598,20.023L52.690,20.359L53.006,22.148ZZ" style="fill: rgb(245, 245, 245); fill-opacity: 1;"></path>
        </g>
      </g>
      <g id="shape-d8e4e9ce-eb1c-8001-8002-88323406e957">
        <g class="fills" id="fills-d8e4e9ce-eb1c-8001-8002-88323406e957">
          <path stroke="none" rx="0" ry="0" d="M57.495,25.291L57.810,27.080L59.718,26.743L61.626,26.407L61.311,24.618L60.995,22.829L59.087,23.166L57.179,23.502L57.495,25.291ZZ" style="fill: rgb(245, 245, 245); fill-opacity: 1;"></path>
        </g>
      </g>
      <g id="shape-d8e4e9ce-eb1c-8001-8002-883234071578">
        <g class="fills" id="fills-d8e4e9ce-eb1c-8001-8002-883234071578">
          <path stroke="none" rx="0" ry="0" d="M13.946,34.937L14.261,36.726L16.169,36.390L18.077,36.053L17.762,34.264L17.446,32.476L15.538,32.812L13.630,33.149L13.946,34.937ZZ" style="fill: rgb(245, 245, 245); fill-opacity: 1;"></path>
        </g>
      </g>
      <g id="shape-d8e4e9ce-eb1c-8001-8002-88323407978c">
        <g class="fills" id="fills-d8e4e9ce-eb1c-8001-8002-88323407978c">
          <path stroke="none" rx="0" ry="0" d="M63.898,36.360C58.419,38.482,57.344,45.778,61.958,49.490C63.475,50.698,65.303,51.163,67.566,50.887C69.276,50.683,69.693,50.536,70.725,49.838C72.280,48.752,73.224,47.553,73.774,45.931C75.428,40.942,71.857,35.891,66.640,35.876C65.828,35.872,65.115,35.875,65.048,35.911C64.981,35.948,64.449,36.140,63.898,36.360ZZM68.039,39.761C69.900,40.417,70.982,42.784,70.304,44.797C69.433,47.532,65.474,48.230,63.625,45.974C61.051,42.813,64.188,38.424,68.039,39.761ZZ" style="fill: rgb(245, 245, 245); fill-opacity: 1;"></path>
        </g>
      </g>
      <g id="shape-d8e4e9ce-eb1c-8001-8002-8832340807d3">
        <g class="fills" id="fills-d8e4e9ce-eb1c-8001-8002-8832340807d3">
          <path stroke="none" rx="0" ry="0" d="M22.205,45.654C19.963,46.468,18.197,48.451,17.524,50.906C17.039,52.762,17.454,55.394,18.484,56.910C21.532,61.364,28.067,61.466,31.136,57.113C34.078,52.881,31.996,46.928,27.057,45.561C25.249,45.068,23.776,45.082,22.205,45.654ZZM26.226,49.077C26.713,49.188,27.391,49.683,27.882,50.236C29.283,51.907,29.128,54.098,27.428,55.751C26.509,56.675,24.469,56.961,23.177,56.328C20.173,54.915,20.295,50.442,23.360,49.139C24.253,48.761,25.013,48.750,26.226,49.077ZZ" style="fill: rgb(245, 245, 245); fill-opacity: 1;"></path>
        </g>
      </g>
      <g id="shape-d8e4e9ce-eb1c-8001-8002-883234089795">
        <g class="fills" id="fills-d8e4e9ce-eb1c-8001-8002-883234089795">
          <path stroke="none" rx="0" ry="0" d="M45.595,47.063L45.910,48.852L47.818,48.516L49.726,48.179L49.411,46.390L49.095,44.602L47.187,44.938L45.279,45.274L45.595,47.063ZZ" style="fill: rgb(245, 245, 245); fill-opacity: 1;"></path>
        </g>
      </g>
      <g id="shape-d8e4e9ce-eb1c-8001-8002-88323408c600">
        <g class="fills" id="fills-d8e4e9ce-eb1c-8001-8002-88323408c600">
          <path stroke="none" rx="0" ry="0" d="M99.306,49.864C99.264,50.044,99.387,50.883,99.582,51.709L99.923,53.223L101.796,52.966L103.645,52.714L103.305,50.782L102.968,48.874L101.179,49.189C99.891,49.417,99.360,49.609,99.306,49.864ZZ" style="fill: rgb(245, 245, 245); fill-opacity: 1;"></path>
        </g>
      </g>
      <g id="shape-d8e4e9ce-eb1c-8001-8002-8832340aff9b">
        <g class="fills" id="fills-d8e4e9ce-eb1c-8001-8002-8832340aff9b">
          <path stroke="none" rx="0" ry="0" d="M48.709,60.679C47.339,61.142,45.671,62.420,44.894,63.590C41.517,68.710,45.229,75.532,51.331,75.415C54.692,75.364,57.506,73.195,58.483,69.949C58.885,68.599,58.896,68.105,58.618,66.531C58.341,64.957,58.161,64.497,57.322,63.366C55.294,60.649,51.907,59.574,48.709,60.679ZZM52.851,64.228C55.439,65.518,55.893,69.348,53.643,70.950C52.508,71.765,50.774,71.972,49.574,71.446C48.314,70.856,47.609,69.923,47.352,68.468C47.104,67.061,47.675,65.559,48.735,64.733C49.715,64.019,51.883,63.759,52.851,64.228ZZ" style="fill: rgb(245, 245, 245); fill-opacity: 1;"></path>
        </g>
      </g>
      <g id="shape-d8e4e9ce-eb1c-8001-8002-8832340b5c62">
        <g class="fills" id="fills-d8e4e9ce-eb1c-8001-8002-8832340b5c62">
          <path stroke="none" rx="0" ry="0" d="M103.795,53.007C103.753,53.187,103.876,54.026,104.071,54.852L104.412,56.366L106.285,56.110L108.134,55.857L107.794,53.925L107.457,52.017L105.668,52.333C104.380,52.560,103.849,52.752,103.795,53.007ZZ" style="fill: rgb(245, 245, 245); fill-opacity: 1;"></path>
        </g>
      </g>
      <g id="shape-d8e4e9ce-eb1c-8001-8002-8832340b8ff8">
        <g class="fills" id="fills-d8e4e9ce-eb1c-8001-8002-8832340b8ff8">
          <path stroke="none" rx="0" ry="0" d="M68.061,62.899L68.397,64.807L66.489,65.143L64.581,65.480L64.917,67.388L65.254,69.296L67.162,68.959L69.070,68.623L68.734,66.715L68.397,64.807L70.305,64.470L72.213,64.134L71.877,62.226L71.540,60.318L69.632,60.654L67.724,60.991L68.061,62.899ZZ" style="fill: rgb(245, 245, 245); fill-opacity: 1;"></path>
        </g>
      </g>
      <g id="shape-d8e4e9ce-eb1c-8001-8002-8832340bd4ae">
        <g class="fills" id="fills-d8e4e9ce-eb1c-8001-8002-8832340bd4ae">
          <path stroke="none" rx="0" ry="0" d="M30.236,71.536L30.576,73.468L32.424,73.068L34.248,72.673L33.933,70.884L33.617,69.095L31.768,69.347L29.895,69.604L30.236,71.536ZZ" style="fill: rgb(245, 245, 245); fill-opacity: 1;"></path>
        </g>
      </g>
      <g id="shape-d8e4e9ce-eb1c-8001-8002-8832340c1e57">
        <g class="fills" id="fills-d8e4e9ce-eb1c-8001-8002-8832340c1e57">
          <path stroke="none" rx="0" ry="0" d="M27.093,76.025L27.433,77.957L29.281,77.557L31.105,77.162L30.789,75.373L30.474,73.584L28.625,73.836L26.752,74.093L27.093,76.025ZZ" style="fill: rgb(245, 245, 245); fill-opacity: 1;"></path>
        </g>
      </g>
      <g id="shape-d8e4e9ce-eb1c-8001-8002-8832340cb0c5">
        <g class="fills" id="fills-d8e4e9ce-eb1c-8001-8002-8832340cb0c5">
          <path stroke="none" rx="0" ry="0" d="M99.544,67.947C98.898,68.331,98.014,69.176,97.499,69.881C96.262,71.649,95.850,73.221,96.117,75.289C96.505,78.467,98.429,80.735,101.511,81.617C105.684,82.825,109.819,80.472,110.965,76.237C111.450,74.381,111.035,71.749,110.005,70.234C108.277,67.686,105.275,66.420,102.345,66.961C101.296,67.146,100.252,67.502,99.544,67.947ZZM104.733,70.598C106.465,71.079,107.745,72.895,107.538,74.653C107.313,76.586,106.091,77.883,104.183,78.220C101.917,78.619,99.896,77.058,99.707,74.730C99.509,71.937,102.018,69.847,104.733,70.598ZZ" style="fill: rgb(245, 245, 245); fill-opacity: 1;"></path>
        </g>
      </g>
      <g id="shape-d8e4e9ce-eb1c-8001-8002-8832340d3768">
        <g class="fills" id="fills-d8e4e9ce-eb1c-8001-8002-8832340d3768">
          <path stroke="none" rx="0" ry="0" d="M80.969,94.683C79.833,95.351,78.634,96.644,77.945,97.897C77.127,99.394,76.940,101.123,77.417,103.130C77.866,105.116,78.702,106.371,80.421,107.617C83.693,109.991,88.574,109.081,90.927,105.691C94.066,101.178,91.487,94.919,86.066,93.883C84.566,93.606,82.221,93.971,80.969,94.683ZZM85.966,97.638C87.153,98.093,87.823,98.688,88.279,99.739C89.600,102.629,87.090,105.826,83.982,105.218C82.559,104.953,81.418,103.924,81.031,102.566C80.620,101.212,80.689,100.487,81.308,99.394C82.272,97.749,84.299,96.973,85.966,97.638ZZ" style="fill: rgb(245, 245, 245); fill-opacity: 1;"></path>
        </g>
      </g>
      <g id="shape-d8e4e9ce-eb1c-8001-8002-8832340da804">
        <g class="fills" id="fills-d8e4e9ce-eb1c-8001-8002-8832340da804">
          <path stroke="none" rx="0" ry="0" d="M63.362,103.198L63.678,104.987L65.586,104.650L67.494,104.314L67.178,102.525L66.863,100.736L64.955,101.073L63.047,101.409L63.362,103.198ZZ" style="fill: rgb(245, 245, 245); fill-opacity: 1;"></path>
        </g>
      </g>
      <g id="shape-d8e4e9ce-eb1c-8001-8002-8832340da805">
        <g class="fills" id="fills-d8e4e9ce-eb1c-8001-8002-8832340da805">
          <path stroke="none" rx="0" ry="0" d="M99.615,96.806L99.931,98.594L101.839,98.258L103.747,97.921L103.432,96.133L103.116,94.344L101.208,94.680L99.300,95.017L99.615,96.806ZZ" style="fill: rgb(245, 245, 245); fill-opacity: 1;"></path>
        </g>
      </g>
      <g id="shape-d8e4e9ce-eb1c-8001-8002-8832340e0197">
        <g class="fills" id="fills-d8e4e9ce-eb1c-8001-8002-8832340e0197">
          <path stroke="none" rx="0" ry="0" d="M104.104,99.949L104.420,101.738L106.328,101.401L108.236,101.065L107.921,99.276L107.605,97.487L105.697,97.824L103.789,98.160L104.104,99.949ZZ" style="fill: rgb(245, 245, 245); fill-opacity: 1;"></path>
        </g>
      </g>
    </g>
  </g>
</svg>
