<?xml version="1.0" encoding="UTF-8"?>
<svg xmlns="http://www.w3.org/2000/svg" xmlns:xlink="http://www.w3.org/1999/xlink" xmlns:svgjs="http://svgjs.dev/svgjs" version="1.1" width="2000" height="696" viewBox="0 0 2000 696">
  <g transform="matrix(1,0,0,1,-1.2121212121212466,0.9688812460983058)">
    <svg xmlns="http://www.w3.org/2000/svg" xmlns:xlink="http://www.w3.org/1999/xlink" viewBox="0 0 396 138" data-background-color="#ffffff" preserveAspectRatio="xMidYMid meet" height="696" width="2000">
      <g id="tight-bounds" transform="matrix(1,0,0,1,0.2400000000000091,-0.1921057643126005)">
        <svg viewBox="0 0 395.52 138.38421152862517" height="138.38421152862517" width="395.52">
          <g>
            <svg viewBox="0 0 601.7590656132734 210.54296577946766" height="138.38421152862517" width="395.52">
              <g>
                <svg viewBox="0 0 395.52 210.54296577946766" height="210.54296577946766" width="395.52">
                  <g id="textblocktransform">
                    <svg viewBox="0 0 395.52 210.54296577946766" height="210.54296577946766" width="395.52" id="textblock">
                      <g>
                        <svg viewBox="0 0 395.52 210.54296577946766" height="210.54296577946766" width="395.52">
                          <g transform="matrix(1,0,0,1,0,0)">
                            <svg width="395.52" viewBox="77.27999877929688 -35 144.65000915527344 74" height="210.54296577946766" data-palette-color="#364f84">
                              <svg></svg>
                              <svg></svg>
                              <g class="wordmark-text-0" data-fill-palette-color="primary" id="text-0">
                                <path xmlns="http://www.w3.org/2000/svg" d="M99.13 0v0h-4.8v-35h4.8c4.8 0 8.867 1.767 12.2 5.3 3.333 3.533 5 7.6 5 12.2 0 4.6-1.667 8.667-5 12.2-3.333 3.533-7.4 5.3-12.2 5.3zM95.83-1.5h3.3c4.367 0 8.077-1.61 11.13-4.83 3.047-3.213 4.57-6.937 4.57-11.17 0-4.233-1.523-7.96-4.57-11.18-3.053-3.213-6.763-4.82-11.13-4.82v0h-3.3zM138.38-27.48c-1.133-0.347-2.533-0.52-4.2-0.52-1.667 0-3.067 0.173-4.2 0.52-1.133 0.353-2.173 1.003-3.12 1.95-0.953 0.953-1.663 2.337-2.13 4.15-0.467 1.82-0.7 4.113-0.7 6.88 0 2.767 0.233 5.057 0.7 6.87 0.467 1.82 1.177 3.203 2.13 4.15 0.947 0.953 1.987 1.603 3.12 1.95 1.133 0.353 2.533 0.53 4.2 0.53 1.667 0 3.067-0.177 4.2-0.53 1.133-0.347 2.177-0.997 3.13-1.95 0.947-0.947 1.653-2.33 2.12-4.15 0.467-1.813 0.7-4.103 0.7-6.87 0-2.767-0.233-5.06-0.7-6.88-0.467-1.813-1.173-3.197-2.12-4.15-0.953-0.947-1.997-1.597-3.13-1.95zM143.13-3.05c-1.8 2.367-4.783 3.55-8.95 3.55-4.167 0-7.15-1.183-8.95-3.55-1.8-2.367-2.7-6.183-2.7-11.45 0-5.267 0.9-9.083 2.7-11.45 1.8-2.367 4.783-3.55 8.95-3.55 4.167 0 7.15 1.183 8.95 3.55 1.8 2.367 2.7 6.183 2.7 11.45 0 5.267-0.9 9.083-2.7 11.45zM155.58-1.5h15.2v1.5h-16.7v-29h1.5zM177.98-3.05c-1.8-2.367-2.7-6.183-2.7-11.45 0-5.267 0.9-9.083 2.7-11.45 1.8-2.367 4.783-3.55 8.95-3.55 4.167 0 7.167 1.15 9 3.45v0l-1.1 1c-1.467-1.967-4.1-2.95-7.9-2.95v0c-1.667 0-3.067 0.173-4.2 0.52-1.133 0.353-2.173 1.003-3.12 1.95-0.953 0.953-1.663 2.337-2.13 4.15-0.467 1.82-0.7 4.113-0.7 6.88 0 2.767 0.233 5.057 0.7 6.87 0.467 1.82 1.177 3.203 2.13 4.15 0.947 0.953 1.987 1.603 3.12 1.95 1.133 0.353 2.533 0.53 4.2 0.53v0c3.8 0 6.433-0.983 7.9-2.95v0l1.1 1c-1.833 2.3-4.833 3.45-9 3.45-4.167 0-7.15-1.183-8.95-3.55zM203.38 0v-29h1.5v29z" fill="#ffffff" fill-rule="nonzero" stroke="none" stroke-width="1" stroke-linecap="butt" stroke-linejoin="miter" stroke-miterlimit="10" stroke-dasharray="" stroke-dashoffset="0" font-family="none" font-weight="none" font-size="none" text-anchor="none" style="mix-blend-mode: normal" data-fill-palette-color="primary" opacity="1"></path>
                                <path xmlns="http://www.w3.org/2000/svg" d="M82.08 38.5v0h-4.8v-35h4.8c4.8 0 8.867 1.767 12.2 5.3 3.333 3.533 5 7.6 5 12.2 0 4.6-1.667 8.667-5 12.2-3.333 3.533-7.4 5.3-12.2 5.3zM78.78 37h3.3c4.367 0 8.077-1.61 11.13-4.83 3.047-3.213 4.57-6.937 4.57-11.17 0-4.233-1.523-7.96-4.57-11.18-3.053-3.213-6.763-4.82-11.13-4.82v0h-3.3zM125.03 34.55l1.1 1c-1.833 2.3-4.833 3.45-9 3.45-4.167 0-7.15-1.183-8.95-3.55-1.8-2.367-2.7-6.183-2.7-11.45 0-5.267 0.9-9.083 2.7-11.45 1.8-2.367 4.783-3.55 8.95-3.55v0c4.833 0 8.117 1.583 9.85 4.75v0l-12.25 10.25h-2.35l12.65-10.55c-1.467-1.967-4.1-2.95-7.9-2.95v0c-1.667 0-3.067 0.173-4.2 0.52-1.133 0.353-2.173 1.003-3.12 1.95-0.953 0.953-1.663 2.337-2.13 4.15-0.467 1.82-0.7 4.113-0.7 6.88 0 2.767 0.233 5.057 0.7 6.87 0.467 1.82 1.177 3.203 2.13 4.15 0.947 0.953 1.987 1.603 3.12 1.95 1.133 0.353 2.533 0.53 4.2 0.53v0c3.8 0 6.433-0.983 7.9-2.95zM135.63 37h15.2v1.5h-16.7v-29h1.5zM156.58 38.5v-29h1.5v29zM164.98 38.5l15.9-27.5h-15.6v-1.5h18.2l-15.9 27.5h16.1v1.5zM190.68 38.5v-29h1.5v29zM219.98 34.55l1.1 1c-1.833 2.3-4.833 3.45-9 3.45-4.167 0-7.15-1.183-8.95-3.55-1.8-2.367-2.7-6.183-2.7-11.45 0-5.267 0.9-9.083 2.7-11.45 1.8-2.367 4.783-3.55 8.95-3.55v0c4.833 0 8.117 1.583 9.85 4.75v0l-12.25 10.25h-2.35l12.65-10.55c-1.467-1.967-4.1-2.95-7.9-2.95v0c-1.667 0-3.067 0.173-4.2 0.52-1.133 0.353-2.177 1.003-3.13 1.95-0.947 0.953-1.653 2.337-2.12 4.15-0.467 1.82-0.7 4.113-0.7 6.88 0 2.767 0.233 5.057 0.7 6.87 0.467 1.82 1.173 3.203 2.12 4.15 0.953 0.953 1.997 1.603 3.13 1.95 1.133 0.353 2.533 0.53 4.2 0.53v0c3.8 0 6.433-0.983 7.9-2.95z" fill="#ffffff" fill-rule="nonzero" stroke="none" stroke-width="1" stroke-linecap="butt" stroke-linejoin="miter" stroke-miterlimit="10" stroke-dasharray="" stroke-dashoffset="0" font-family="none" font-weight="none" font-size="none" text-anchor="none" style="mix-blend-mode: normal" data-fill-palette-color="primary" opacity="1"></path>
                              </g>
                            </svg>
                          </g>
                        </svg>
                      </g>
                    </svg>
                  </g>
                </svg>
              </g>
              <g transform="matrix(1,0,0,1,418.4355456132734,13.6101023465867)">
                <svg viewBox="0 0 183.32351999999997 183.32276108629426" height="183.32276108629426" width="183.32351999999997">
                  <g>
                    <svg xmlns="http://www.w3.org/2000/svg" xmlns:xlink="http://www.w3.org/1999/xlink" version="1.0" x="0" y="0" viewBox="4.667734146118164 4.6859588623046875 90.3050308227539 90.30465698242188" xml:space="preserve" height="183.32276108629426" width="183.32351999999997" class="icon-icon-0" data-fill-palette-color="accent" id="icon-0">
                      <path d="M17.504 35.743c-1.334 8.611 0.522 17.134 5.093 23.382 3.514 4.801 8.413 7.905 13.796 8.739 5.677 0.88 11.253-0.429 15.703-3.685 1.248-0.912 2.36-1.946 3.326-3.076-2.222 0.978-4.814 1.267-7.626 0.831-11.717-1.816-19.673-13.464-17.735-25.964 0.934-6.03 4.384-11.497 9.713-15.397 6.768-4.952 15.953-6.97 25.201-5.537 7.474 1.158 17.67 5.964 25.56 15.213 0 0-22.835-39.421-56.115-20.356C23.689 16.04 18.653 28.323 17.504 35.743z" fill="#ffffff" data-fill-palette-color="accent"></path>
                      <path d="M82.544 65.256c1.659-8.555 0.125-17.141-4.207-23.557-3.331-4.931-8.109-8.217-13.457-9.253-5.639-1.094-11.261 0.004-15.83 3.091-1.282 0.863-2.431 1.854-3.44 2.947 2.257-0.894 4.859-1.084 7.652-0.543 11.64 2.257 19.151 14.196 16.744 26.616-1.161 5.989-4.815 11.324-10.288 15.019-6.949 4.692-16.205 6.364-25.393 4.582C26.902 82.719 16.894 77.532 9.358 67.992c0 0 21.331 40.255 55.307 22.457C75.621 84.712 81.115 72.628 82.544 65.256z" fill="#ffffff" data-fill-palette-color="accent"></path>
                      <path d="M35.726 82.88c8.611 1.334 17.133-0.522 23.381-5.094 4.801-3.514 7.905-8.413 8.74-13.796 0.879-5.676-0.429-11.253-3.686-15.702-0.912-1.248-1.946-2.36-3.076-3.327 0.979 2.222 1.267 4.815 0.831 7.626-1.816 11.717-13.463 19.673-25.965 17.736-6.029-0.934-11.497-4.385-15.395-9.713-4.952-6.768-6.971-15.954-5.538-25.202 1.158-7.474 5.964-17.67 15.213-25.559 0 0-39.421 22.835-20.356 56.115C16.022 76.695 28.305 81.73 35.726 82.88z" fill="#ffffff" data-fill-palette-color="accent"></path>
                      <path d="M90.432 35.718c-5.738-10.955-17.822-16.45-25.194-17.879-8.554-1.659-17.141-0.125-23.557 4.208-4.931 3.331-8.217 8.108-9.254 13.456-1.094 5.64 0.004 11.261 3.092 15.83 0.863 1.282 1.854 2.431 2.946 3.441-0.894-2.257-1.084-4.859-0.542-7.652 2.257-11.64 14.196-19.151 26.615-16.744 5.99 1.161 11.324 4.816 15.019 10.289 4.693 6.949 6.363 16.204 4.583 25.392-1.44 7.423-6.626 17.431-16.167 24.966C67.973 91.025 108.228 69.694 90.432 35.718z" fill="#ffffff" data-fill-palette-color="accent"></path>
                    </svg>
                  </g>
                </svg>
              </g>
            </svg>
          </g>
          <defs></defs>
        </svg>
        <rect width="395.52" height="138.38421152862517" fill="none" stroke="none" visibility="hidden"></rect>
      </g>
    </svg>
  </g>
</svg>
