<?xml version="1.0" encoding="UTF-8"?>
<svg xmlns:xlink="http://www.w3.org/1999/xlink" xmlns="http://www.w3.org/2000/svg" width="160.461" height="160.42" id="screenshot-d8e4e9ce-eb1c-8001-8002-871d8ada0297" viewBox="-18.234 -18.251 160.461 160.42" style="-webkit-print-color-adjust: exact;" fill="none" version="1.1">
  <g id="shape-d8e4e9ce-eb1c-8001-8002-871d8ada0297" version="1.0" width="512.000000pt" height="512.000000pt" preserveAspectRatio="xMidYMid meet" rx="0" ry="0" style="fill: rgb(0, 0, 0);">
    <g id="shape-d8e4e9ce-eb1c-8001-8002-871d8ada0299" rx="0" ry="0" style="fill: rgb(0, 0, 0);">
      <g id="shape-d8e4e9ce-eb1c-8001-8002-871d8ada029a">
        <g class="fills" id="fills-d8e4e9ce-eb1c-8001-8002-871d8ada029a">
          <path stroke="none" rx="0" ry="0" d="M34.422,6.455C21.073,13.199,10.723,24.257,4.977,37.941C-0.714,51.499,-1.497,65.592,2.633,79.697C3.098,81.230,3.643,82.966,3.871,83.553L4.292,84.636L6.412,83.812C8.195,83.119,8.627,83.029,9.304,83.234L10.066,83.457L11.573,87.338C13.256,91.670,13.730,92.421,15.302,93.394C19.001,95.696,23.911,93.295,24.454,88.878C24.581,87.868,24.442,87.376,22.574,82.233L20.548,76.684L20.996,75.965C21.416,75.309,21.506,75.274,22.193,75.370L22.933,75.472L27.223,86.114C30.026,93.127,31.686,97.000,32.059,97.426C34.143,99.915,37.309,100.580,40.313,99.154C42.679,98.027,43.935,96.111,44.120,93.312C44.194,92.167,44.041,91.707,40.717,82.949C36.586,72.116,36.680,73.092,39.839,71.865L41.801,71.102L41.034,68.726C40.070,65.777,39.829,63.819,40.044,60.697C40.248,57.813,40.565,56.288,41.556,53.826C42.972,50.186,45.458,46.961,48.793,44.315C50.342,43.090,50.925,42.786,53.926,41.620C57.527,40.195,58.711,39.968,62.303,39.923C66.165,39.903,71.133,41.531,74.601,43.974C78.029,46.382,80.321,49.205,82.164,53.215L83.264,55.644L85.298,54.932C86.444,54.539,87.503,54.257,87.713,54.331C87.955,54.419,88.638,55.841,89.976,59.087C92.039,64.128,92.477,64.789,94.235,65.638C96.754,66.840,100.218,65.598,101.412,63.057C102.280,61.214,102.276,61.137,99.593,53.896L97.129,47.219L97.564,46.401C97.903,45.802,98.152,45.576,98.647,45.513C100.178,45.308,99.987,45.018,103.689,54.279C107.411,63.661,107.460,63.720,109.585,64.712C111.272,65.511,112.553,65.533,114.358,64.831C116.614,63.955,117.661,62.639,118.213,59.984C118.374,59.194,118.151,58.554,115.503,51.403C111.869,41.649,111.813,42.372,116.564,40.500L119.700,39.282L118.552,36.793C115.982,31.248,113.138,26.666,109.531,22.329C98.681,9.172,82.513,1.042,65.455,0.112C59.754,-0.192,53.870,0.302,48.284,1.563C44.630,2.386,37.535,4.908,34.422,6.455ZZM45.439,6.070C62.961,0.977,80.862,3.942,95.748,14.388C101.319,18.301,106.938,24.141,110.625,29.824C111.958,31.851,113.963,35.408,114.375,36.469L114.708,37.326L113.197,37.913C110.069,39.154,108.692,41.559,109.308,44.747C109.470,45.567,110.681,49.018,112.145,52.785L114.722,59.419L114.391,60.170C113.894,61.298,113.112,61.758,111.963,61.607C110.382,61.416,110.197,61.073,106.695,52.124C103.140,43.041,103.122,42.996,100.744,42.154C97.384,40.992,93.972,43.304,93.630,46.969C93.553,47.907,93.815,48.715,95.955,54.557C98.217,60.715,98.361,61.152,98.069,61.603C97.599,62.331,96.422,62.711,95.706,62.340C95.156,62.060,94.901,61.536,93.035,57.067C91.090,52.396,90.945,52.089,90.142,51.492C89.116,50.722,87.761,50.443,86.365,50.726C85.234,50.958,85.283,51.016,83.607,48.240C81.180,44.197,77.356,40.905,72.582,38.709C68.192,36.701,63.673,35.963,58.939,36.478C56.730,36.739,56.049,36.926,52.724,38.192C49.385,39.489,48.802,39.793,46.982,41.124C40.982,45.532,37.209,52.061,36.467,59.309C36.152,62.443,36.380,65.704,37.088,68.260C37.183,68.638,37.090,68.934,36.814,69.093C35.526,69.853,34.808,70.547,34.332,71.459C33.273,73.481,33.218,73.138,37.115,83.569C40.259,91.930,40.621,93.062,40.466,93.667C40.050,95.335,38.420,96.487,36.867,96.234C35.283,95.966,35.429,96.273,30.767,84.607C26.517,74.002,26.438,73.799,25.582,73.067C22.311,70.261,17.443,72.100,17.059,76.326C16.928,77.727,16.954,77.795,18.900,82.804C20.171,86.075,20.835,88.050,20.799,88.428C20.577,90.462,18.321,91.338,16.783,89.988C16.512,89.756,15.773,88.121,14.826,85.685C13.354,81.894,13.261,81.723,12.250,80.791C11.007,79.664,9.245,79.206,7.614,79.554L6.569,79.804L6.157,78.744C5.614,77.345,4.744,73.502,4.253,70.499C2.921,62.058,3.818,51.400,6.568,43.373C7.818,39.771,8.595,37.963,10.414,34.556C17.670,20.883,30.553,10.399,45.439,6.070ZZ" style="fill: rgb(245, 245, 245); fill-opacity: 1;"></path>
        </g>
      </g>
      <g id="shape-d8e4e9ce-eb1c-8001-8002-871d8ada029b">
        <g class="fills" id="fills-d8e4e9ce-eb1c-8001-8002-871d8ada029b">
          <path stroke="none" rx="0" ry="0" d="M43.135,13.509L43.792,15.201L46.620,14.258C59.108,10.108,73.753,11.378,85.539,17.653C88.553,19.261,92.660,22.080,94.910,24.062C95.761,24.848,96.600,25.405,96.736,25.352C97.097,25.212,99.055,23.101,98.985,22.921C98.836,22.537,94.319,18.865,92.274,17.478C84.452,12.181,75.968,9.193,66.474,8.415C58.763,7.749,52.278,8.503,45.305,10.874L42.478,11.817L43.135,13.509ZZ" style="fill: rgb(245, 245, 245); fill-opacity: 1;"></path>
        </g>
      </g>
      <g id="shape-d8e4e9ce-eb1c-8001-8002-871d8ada029c">
        <g class="fills" id="fills-d8e4e9ce-eb1c-8001-8002-871d8ada029c">
          <path stroke="none" rx="0" ry="0" d="M13.688,39.308L14.345,41.001L16.038,40.343L17.730,39.686L17.072,37.994L16.415,36.302L14.723,36.959L13.031,37.616L13.688,39.308ZZ" style="fill: rgb(245, 245, 245); fill-opacity: 1;"></path>
        </g>
      </g>
      <g id="shape-d8e4e9ce-eb1c-8001-8002-871d8ada029d">
        <g class="fills" id="fills-d8e4e9ce-eb1c-8001-8002-871d8ada029d">
          <path stroke="none" rx="0" ry="0" d="M19.329,37.117L19.986,38.809L21.678,38.152L23.370,37.495L22.713,35.802L22.055,34.110L20.363,34.768L18.671,35.425L19.329,37.117ZZ" style="fill: rgb(245, 245, 245); fill-opacity: 1;"></path>
        </g>
      </g>
      <g id="shape-d8e4e9ce-eb1c-8001-8002-871d8ada029e">
        <g class="fills" id="fills-d8e4e9ce-eb1c-8001-8002-871d8ada029e">
          <path stroke="none" rx="0" ry="0" d="M24.969,34.926L25.626,36.618L27.318,35.961L29.011,35.303L28.353,33.611L27.696,31.919L26.004,32.576L24.312,33.234L24.969,34.926ZZ" style="fill: rgb(245, 245, 245); fill-opacity: 1;"></path>
        </g>
      </g>
      <g id="shape-d8e4e9ce-eb1c-8001-8002-871d8ada029f">
        <g class="fills" id="fills-d8e4e9ce-eb1c-8001-8002-871d8ada029f">
          <path stroke="none" rx="0" ry="0" d="M30.609,32.735L31.267,34.427L32.959,33.770L34.651,33.112L33.994,31.420L33.336,29.728L31.644,30.385L29.952,31.043L30.609,32.735ZZ" style="fill: rgb(245, 245, 245); fill-opacity: 1;"></path>
        </g>
      </g>
      <g id="shape-d8e4e9ce-eb1c-8001-8002-871d8ada02a0">
        <g class="fills" id="fills-d8e4e9ce-eb1c-8001-8002-871d8ada02a0">
          <path stroke="none" rx="0" ry="0" d="M45.346,32.099C42.050,33.977,38.298,37.019,36.133,39.600C34.700,41.325,33.044,43.682,33.132,43.907C33.167,43.997,33.819,44.471,34.601,44.947L35.976,45.814L37.111,44.257C39.394,41.111,42.448,38.211,45.774,36.010C47.475,34.908,53.973,32.383,56.161,32.001C63.226,30.736,70.555,31.888,76.595,35.202L78.848,36.456L79.696,35.166C80.153,34.469,80.587,33.781,80.665,33.647C80.733,33.490,80.230,33.063,79.497,32.647C71.738,28.182,62.834,26.785,54.383,28.693C51.761,29.296,47.389,30.942,45.346,32.099ZZ" style="fill: rgb(245, 245, 245); fill-opacity: 1;"></path>
        </g>
      </g>
      <g id="shape-d8e4e9ce-eb1c-8001-8002-871d8ada02a1">
        <g class="fills" id="fills-d8e4e9ce-eb1c-8001-8002-871d8ada02a1">
          <path stroke="none" rx="0" ry="0" d="M30.845,47.912L30.136,49.563L31.788,50.272L33.439,50.981L34.134,49.361L34.820,47.718L33.295,46.934C32.463,46.530,31.711,46.199,31.666,46.216C31.599,46.243,31.245,47.003,30.845,47.912ZZ" style="fill: rgb(245, 245, 245); fill-opacity: 1;"></path>
        </g>
      </g>
      <g id="shape-d8e4e9ce-eb1c-8001-8002-871d8ada02a2">
        <g class="fills" id="fills-d8e4e9ce-eb1c-8001-8002-871d8ada02a2">
          <path stroke="none" rx="0" ry="0" d="M28.925,53.332C28.789,53.982,28.614,54.803,28.507,55.130C28.376,55.726,28.416,55.763,30.040,56.067C30.982,56.220,31.804,56.264,31.905,56.121C32.128,55.827,32.686,53.454,32.590,53.206C32.529,53.048,29.451,52.011,29.248,52.090C29.203,52.107,29.053,52.659,28.925,53.332ZZ" style="fill: rgb(245, 245, 245); fill-opacity: 1;"></path>
        </g>
      </g>
      <g id="shape-d8e4e9ce-eb1c-8001-8002-871d8ada02a3">
        <g class="fills" id="fills-d8e4e9ce-eb1c-8001-8002-871d8ada02a3">
          <path stroke="none" rx="0" ry="0" d="M99.534,26.005C98.912,26.610,98.363,27.135,98.358,27.189C98.289,27.346,100.356,29.659,100.580,29.701C100.751,29.739,103.174,27.889,103.343,27.589C103.407,27.486,100.922,24.765,100.795,24.840C100.727,24.866,100.156,25.400,99.534,26.005ZZ" style="fill: rgb(245, 245, 245); fill-opacity: 1;"></path>
        </g>
      </g>
      <g id="shape-d8e4e9ce-eb1c-8001-8002-871d8ada02a4">
        <g class="fills" id="fills-d8e4e9ce-eb1c-8001-8002-871d8ada02a4">
          <path stroke="none" rx="0" ry="0" d="M9.129,68.345L9.795,70.060L11.415,69.352L13.014,68.653L12.441,66.980L11.878,65.329L10.163,65.996L8.471,66.653L9.129,68.345ZZ" style="fill: rgb(245, 245, 245); fill-opacity: 1;"></path>
        </g>
      </g>
      <g id="shape-d8e4e9ce-eb1c-8001-8002-871d8ada02a5">
        <g class="fills" id="fills-d8e4e9ce-eb1c-8001-8002-871d8ada02a5">
          <path stroke="none" rx="0" ry="0" d="M14.769,66.154L15.435,67.868L17.056,67.161L18.654,66.462L18.082,64.789L17.518,63.138L15.804,63.804L14.112,64.462L14.769,66.154ZZ" style="fill: rgb(245, 245, 245); fill-opacity: 1;"></path>
        </g>
      </g>
      <g id="shape-d8e4e9ce-eb1c-8001-8002-871d8ada02a6">
        <g class="fills" id="fills-d8e4e9ce-eb1c-8001-8002-871d8ada02a6">
          <path stroke="none" rx="0" ry="0" d="M103.452,30.611C102.094,31.658,102.080,31.689,102.478,32.314C103.474,33.874,104.039,34.460,104.355,34.337C104.648,34.223,106.223,33.196,106.866,32.713C107.020,32.575,106.799,32.141,106.050,31.082C105.474,30.267,104.959,29.610,104.905,29.605C104.843,29.577,104.191,30.038,103.452,30.611ZZ" style="fill: rgb(245, 245, 245); fill-opacity: 1;"></path>
        </g>
      </g>
      <g id="shape-d8e4e9ce-eb1c-8001-8002-871d8ada02a7">
        <g class="fills" id="fills-d8e4e9ce-eb1c-8001-8002-871d8ada02a7">
          <path stroke="none" rx="0" ry="0" d="M84.303,41.140L85.010,42.761L86.683,42.189L88.334,41.626L87.668,39.911L87.011,38.219L85.319,38.876L83.604,39.542L84.303,41.140ZZ" style="fill: rgb(245, 245, 245); fill-opacity: 1;"></path>
        </g>
      </g>
      <g id="shape-d8e4e9ce-eb1c-8001-8002-871d8ada02a8">
        <g class="fills" id="fills-d8e4e9ce-eb1c-8001-8002-871d8ada02a8">
          <path stroke="none" rx="0" ry="0" d="M89.943,38.949L90.651,40.570L92.324,39.998L93.975,39.434L93.309,37.720L92.651,36.027L90.959,36.685L89.244,37.351L89.943,38.949ZZ" style="fill: rgb(245, 245, 245); fill-opacity: 1;"></path>
        </g>
      </g>
      <g id="shape-d8e4e9ce-eb1c-8001-8002-871d8ada02a9">
        <g class="fills" id="fills-d8e4e9ce-eb1c-8001-8002-871d8ada02a9">
          <path stroke="none" rx="0" ry="0" d="M95.584,36.758L96.291,38.379L97.852,37.850L99.390,37.331L98.723,35.616L98.066,33.924L96.487,34.537L94.885,35.160L95.584,36.758ZZ" style="fill: rgb(245, 245, 245); fill-opacity: 1;"></path>
        </g>
      </g>
      <g id="shape-d8e4e9ce-eb1c-8001-8002-871d8ada02aa">
        <g class="fills" id="fills-d8e4e9ce-eb1c-8001-8002-871d8ada02aa">
          <path stroke="none" rx="0" ry="0" d="M117.403,43.862C117.449,44.181,117.771,45.277,118.075,46.327C119.473,50.795,120.326,57.267,120.276,62.688C120.136,74.557,116.238,86.381,109.250,96.132C104.240,103.090,97.765,108.747,89.584,113.354C86.727,114.957,78.804,117.957,75.439,118.719C62.082,121.701,49.356,120.361,37.133,114.697C26.305,109.685,17.153,101.166,11.124,90.525C10.426,89.264,9.672,87.791,9.453,87.227C9.234,86.663,8.942,86.179,8.771,86.141C8.632,86.117,7.865,86.415,7.065,86.830L5.615,87.575L6.548,89.576C8.533,93.816,12.751,99.994,16.312,103.881C20.350,108.259,26.116,112.874,31.390,115.889C39.243,120.395,49.233,123.317,58.469,123.832C78.914,124.926,98.769,115.810,111.130,99.635C116.964,91.993,121.384,81.915,123.024,72.501C123.552,69.517,123.979,63.664,123.915,60.625C123.769,55.436,122.554,47.963,121.118,43.665L120.616,42.172L118.965,42.735C117.382,43.272,117.300,43.330,117.403,43.862ZZ" style="fill: rgb(245, 245, 245); fill-opacity: 1;"></path>
        </g>
      </g>
      <g id="shape-d8e4e9ce-eb1c-8001-8002-871d8ada02ab">
        <g class="fills" id="fills-d8e4e9ce-eb1c-8001-8002-871d8ada02ab">
          <path stroke="none" rx="0" ry="0" d="M42.027,74.157C40.033,75.373,40.083,75.301,40.644,76.278C41.445,77.603,43.173,79.580,44.937,81.180C50.524,86.202,58.089,88.431,65.853,87.362C68.145,87.043,72.425,85.562,74.581,84.361C81.873,80.204,86.675,72.781,87.455,64.428C87.597,62.789,87.668,61.100,87.596,60.713C87.445,59.992,87.423,60.001,85.790,60.142C84.890,60.232,84.129,60.345,84.102,60.408C84.074,60.471,84.030,61.293,84.030,62.228C83.957,66.385,82.426,71.134,79.987,74.548C77.493,78.088,74.774,80.313,70.814,82.085C65.121,84.608,59.331,84.676,53.574,82.291C49.640,80.651,46.486,78.215,44.216,75.046C43.666,74.299,43.183,73.656,43.098,73.637C43.035,73.609,42.556,73.847,42.027,74.157ZZ" style="fill: rgb(245, 245, 245); fill-opacity: 1;"></path>
        </g>
      </g>
      <g id="shape-d8e4e9ce-eb1c-8001-8002-871d8ada02ac">
        <g class="fills" id="fills-d8e4e9ce-eb1c-8001-8002-871d8ada02ac">
          <path stroke="none" rx="0" ry="0" d="M90.103,73.917C89.868,74.449,89.226,75.737,88.618,76.778C84.774,83.595,79.000,88.383,71.558,90.884C66.922,92.452,62.252,92.864,57.481,92.146C56.269,91.968,55.240,91.926,55.208,92.043C55.161,92.191,54.961,92.944,54.741,93.782L54.362,95.280L55.569,95.512C57.489,95.909,61.742,96.230,63.546,96.126C68.299,95.864,74.371,94.180,78.100,92.082C84.925,88.262,90.528,82.164,93.273,75.593L93.788,74.380L92.137,73.672L90.485,72.963L90.103,73.917ZZ" style="fill: rgb(245, 245, 245); fill-opacity: 1;"></path>
        </g>
      </g>
      <g id="shape-d8e4e9ce-eb1c-8001-8002-871d8ada02ad">
        <g class="fills" id="fills-d8e4e9ce-eb1c-8001-8002-871d8ada02ad">
          <path stroke="none" rx="0" ry="0" d="M35.701,106.866L34.818,108.403L35.514,108.860C36.979,109.823,42.336,112.182,44.975,113.026C52.270,115.360,59.022,116.165,66.426,115.573C67.740,115.478,68.937,115.351,69.095,115.289C69.365,115.184,69.011,111.998,68.685,111.761C68.582,111.697,68.344,111.686,68.163,111.756C67.509,112.010,61.035,112.189,58.560,112.034C51.332,111.544,44.197,109.486,37.929,106.052L36.606,105.320L35.701,106.866ZZ" style="fill: rgb(245, 245, 245); fill-opacity: 1;"></path>
        </g>
      </g>
    </g>
  </g>
</svg>
