<?xml version="1.0" encoding="UTF-8"?>
<svg xmlns:xlink="http://www.w3.org/1999/xlink" xmlns="http://www.w3.org/2000/svg" width="124" height="124" id="screenshot-d8e4e9ce-eb1c-8001-8002-8832ffd55e20" viewBox="-0 -0 124 124" style="-webkit-print-color-adjust: exact;" fill="none" version="1.1">
  <g id="shape-d8e4e9ce-eb1c-8001-8002-8832ffd55e20" version="1.0" width="512.000000pt" height="512.000000pt" preserveAspectRatio="xMidYMid meet" rx="0" ry="0" style="fill: rgb(0, 0, 0);">
    <g id="shape-d8e4e9ce-eb1c-8001-8002-8832ffd55e22" rx="0" ry="0" style="fill: rgb(0, 0, 0);">
      <g id="shape-d8e4e9ce-eb1c-8001-8002-8832ffd55e23">
        <g class="fills" id="fills-d8e4e9ce-eb1c-8001-8002-8832ffd55e23">
          <path stroke="none" rx="0" ry="0" d="M71.954,3.536C69.774,3.996,68.006,4.965,66.626,6.418C64.301,8.864,63.380,11.625,63.380,15.984L63.380,18.770L61.419,19.327C58.779,20.077,57.180,21.070,54.855,23.371C51.949,26.253,50.666,29.038,50.254,33.325L50.084,35.020L42.092,39.016C37.709,41.196,34.052,43.061,34.003,43.158C33.882,43.352,35.287,46.258,35.480,46.258C35.553,46.258,38.992,44.562,43.109,42.504C47.227,40.445,50.690,38.750,50.811,38.750C50.908,38.750,51.150,39.162,51.320,39.646C52.119,41.923,54.323,44.853,56.405,46.355C59.239,48.437,62.170,49.406,65.681,49.406C70.041,49.406,73.407,47.977,76.580,44.805C79.583,41.777,81.012,38.266,80.963,34.027C80.939,31.024,80.116,28.118,78.711,26.035C78.445,25.623,78.227,25.236,78.227,25.115C78.227,25.018,79.244,24.437,80.503,23.807L82.780,22.669L83.966,23.637C85.541,24.921,93.218,32.574,95.470,35.117L97.287,37.176L98.643,36.086C99.394,35.480,99.999,34.948,100.023,34.875C100.048,34.439,92.370,26.374,88.786,23.056L86.412,20.852L88.592,19.762L90.772,18.673L93.412,20.489C103.220,27.367,111.334,36.595,115.645,45.846C117.703,50.254,119.423,56.260,119.762,60.184C119.834,61.104,119.955,62.194,120.004,62.557L120.125,63.235L117.049,63.162L113.973,63.090L113.683,61.152C112.980,56.236,111.091,51.295,107.749,45.604C106.659,43.763,104.673,40.736,104.141,40.130C104.044,40.009,103.317,40.397,102.518,40.954L101.065,41.995L102.978,44.926C105.303,48.438,107.895,53.596,108.815,56.478C109.566,58.852,110.195,61.564,110.195,62.533L110.195,63.211L56.769,63.211C6.030,63.211,3.366,63.187,3.439,62.775C3.488,62.484,7.847,60.184,17.316,55.412C24.921,51.586,31.218,48.437,31.315,48.389C31.436,48.341,31.170,47.590,30.734,46.694L29.959,45.095L14.967,52.579L0.000,60.062L0.000,88.374L0.000,116.662L0.630,117.606C1.623,119.108,2.955,120.391,3.996,120.876C4.916,121.287,5.861,121.336,19.811,121.336L34.633,121.336L34.633,119.520L34.633,117.703L19.932,117.655L5.231,117.582L4.311,116.371L3.391,115.160L3.391,112.423L3.391,109.711L61.782,109.711L120.198,109.711L120.028,110.704C119.592,113.465,117.340,115.741,113.707,117.098L112.133,117.703L76.289,117.703L40.445,117.703L40.445,119.520L40.445,121.336L76.483,121.336C116.759,121.336,113.392,121.481,117.098,119.568C119.374,118.381,121.723,116.202,122.595,114.434C123.806,112.036,123.806,112.254,123.709,85.371C123.612,60.402,123.613,60.159,123.080,57.277C121.675,49.963,119.229,43.836,115.087,37.418C109.735,29.111,101.307,20.925,92.661,15.573L91.014,14.555L83.288,18.430L75.563,22.281L74.352,21.458C72.656,20.295,71.324,19.690,69.387,19.230C68.466,19.012,67.546,18.794,67.401,18.745C67.159,18.697,67.086,17.946,67.086,16.033C67.086,10.293,68.902,7.774,73.601,6.999L75.320,6.709L75.320,4.941L75.320,3.148L74.424,3.173C73.916,3.173,72.802,3.342,71.954,3.536ZZM69.387,23.008C77.573,25.817,79.995,36.231,73.891,42.334C67.982,48.244,58.004,46.234,54.807,38.508C53.959,36.401,53.741,32.889,54.371,30.952C55.098,28.748,55.945,27.319,57.374,25.914C59.215,24.098,61.443,22.911,63.938,22.427C65.027,22.233,68.079,22.548,69.387,23.008ZZM120.077,71.978L120.004,76.895L115.645,76.967L111.261,77.016L109.348,78.953L107.410,80.891L102.494,80.891L97.553,80.891L95.567,78.953L93.581,77.016L75.296,77.016L57.035,77.016L55.098,78.953L53.160,80.891L45.289,80.891L37.418,80.891L34.512,77.984L31.605,75.078L17.559,75.030L3.512,74.957L3.439,71.009L3.391,67.086L61.758,67.086L120.125,67.086L120.077,71.978ZZM32.816,81.617L35.771,84.523L45.192,84.523L54.613,84.523L56.551,82.586L58.488,80.648L75.320,80.648L92.152,80.648L94.090,82.586L96.027,84.523L102.566,84.523L109.105,84.523L111.043,82.586L112.980,80.648L116.541,80.648L120.125,80.648L120.125,93.363L120.125,106.078L61.758,106.078L3.391,106.078L3.391,100.145L3.391,94.211L58.730,94.211L114.070,94.211L114.070,92.395L114.070,90.578L58.730,90.578L3.391,90.578L3.391,84.645L3.391,78.711L16.638,78.711L29.886,78.711L32.816,81.617ZZ" style="fill: rgb(245, 245, 245); fill-opacity: 1;"></path>
        </g>
      </g>
      <g id="shape-d8e4e9ce-eb1c-8001-8002-8832ffd55e24">
        <g class="fills" id="fills-d8e4e9ce-eb1c-8001-8002-8832ffd55e24">
          <path stroke="none" rx="0" ry="0" d="M58.149,36.207C58.682,39.089,61.346,41.632,63.889,41.656L64.664,41.656L64.664,39.864C64.664,38.120,64.664,38.072,63.986,37.951C63.066,37.757,62.024,36.740,61.855,35.844L61.709,35.117L59.820,35.117L57.955,35.117L58.149,36.207ZZ" style="fill: rgb(245, 245, 245); fill-opacity: 1;"></path>
        </g>
      </g>
      <g id="shape-d8e4e9ce-eb1c-8001-8002-8832ffd55e25">
        <g class="fills" id="fills-d8e4e9ce-eb1c-8001-8002-8832ffd55e25">
          <path stroke="none" rx="0" ry="0" d="M7.508,100.145L7.508,101.961L9.445,101.961L11.383,101.961L11.383,100.145L11.383,98.328L9.445,98.328L7.508,98.328L7.508,100.145ZZ" style="fill: rgb(245, 245, 245); fill-opacity: 1;"></path>
        </g>
      </g>
      <g id="shape-d8e4e9ce-eb1c-8001-8002-8832ffd55e26">
        <g class="fills" id="fills-d8e4e9ce-eb1c-8001-8002-8832ffd55e26">
          <path stroke="none" rx="0" ry="0" d="M15.258,100.145L15.258,101.961L17.195,101.961L19.133,101.961L19.133,100.145L19.133,98.328L17.195,98.328L15.258,98.328L15.258,100.145ZZ" style="fill: rgb(245, 245, 245); fill-opacity: 1;"></path>
        </g>
      </g>
      <g id="shape-d8e4e9ce-eb1c-8001-8002-8832ffd55e27">
        <g class="fills" id="fills-d8e4e9ce-eb1c-8001-8002-8832ffd55e27">
          <path stroke="none" rx="0" ry="0" d="M24.945,100.145L24.945,101.961L26.883,101.961L28.820,101.961L28.820,100.145L28.820,98.328L26.883,98.328L24.945,98.328L24.945,100.145ZZ" style="fill: rgb(245, 245, 245); fill-opacity: 1;"></path>
        </g>
      </g>
      <g id="shape-d8e4e9ce-eb1c-8001-8002-8832ffd55e28">
        <g class="fills" id="fills-d8e4e9ce-eb1c-8001-8002-8832ffd55e28">
          <path stroke="none" rx="0" ry="0" d="M110.195,100.145L110.195,101.961L112.133,101.961L114.070,101.961L114.070,100.145L114.070,98.328L112.133,98.328L110.195,98.328L110.195,100.145ZZ" style="fill: rgb(245, 245, 245); fill-opacity: 1;"></path>
        </g>
      </g>
      <g id="shape-d8e4e9ce-eb1c-8001-8002-8832ffd55e29">
        <g class="fills" id="fills-d8e4e9ce-eb1c-8001-8002-8832ffd55e29">
          <path stroke="none" rx="0" ry="0" d="M86.945,53.402L86.945,55.219L88.883,55.219L90.820,55.219L90.820,53.402L90.820,51.586L88.883,51.586L86.945,51.586L86.945,53.402ZZ" style="fill: rgb(245, 245, 245); fill-opacity: 1;"></path>
        </g>
      </g>
      <g id="shape-d8e4e9ce-eb1c-8001-8002-8832ffd55e2a">
        <g class="fills" id="fills-d8e4e9ce-eb1c-8001-8002-8832ffd55e2a">
          <path stroke="none" rx="0" ry="0" d="M24.945,57.398L24.945,59.336L44.320,59.336L63.695,59.336L63.695,57.398L63.695,55.461L44.320,55.461L24.945,55.461L24.945,57.398ZZ" style="fill: rgb(245, 245, 245); fill-opacity: 1;"></path>
        </g>
      </g>
      <g id="shape-d8e4e9ce-eb1c-8001-8002-8832ffd55e2b">
        <g class="fills" id="fills-d8e4e9ce-eb1c-8001-8002-8832ffd55e2b">
          <path stroke="none" rx="0" ry="0" d="M67.619,57.326L67.691,59.215L69.580,59.287L71.445,59.360L71.445,57.398L71.445,55.461L69.508,55.461L67.546,55.461L67.619,57.326ZZ" style="fill: rgb(245, 245, 245); fill-opacity: 1;"></path>
        </g>
      </g>
      <g id="shape-d8e4e9ce-eb1c-8001-8002-8832ffd55e2c">
        <g class="fills" id="fills-d8e4e9ce-eb1c-8001-8002-8832ffd55e2c">
          <path stroke="none" rx="0" ry="0" d="M75.369,57.326L75.441,59.215L77.330,59.287L79.195,59.360L79.195,57.398L79.195,55.461L77.258,55.461L75.296,55.461L75.369,57.326ZZ" style="fill: rgb(245, 245, 245); fill-opacity: 1;"></path>
        </g>
      </g>
      <g id="shape-d8e4e9ce-eb1c-8001-8002-8832ffd55e2d">
        <g class="fills" id="fills-d8e4e9ce-eb1c-8001-8002-8832ffd55e2d">
          <path stroke="none" rx="0" ry="0" d="M83.119,57.326L83.191,59.215L85.080,59.287L86.945,59.360L86.945,57.398L86.945,55.461L85.008,55.461L83.046,55.461L83.119,57.326ZZ" style="fill: rgb(245, 245, 245); fill-opacity: 1;"></path>
        </g>
      </g>
    </g>
  </g>
</svg>
