<?xml version="1.0" encoding="UTF-8"?>
<svg xmlns:xlink="http://www.w3.org/1999/xlink" xmlns="http://www.w3.org/2000/svg" width="42" height="42" id="screenshot-3d00cd49-263d-80e5-8002-e9f90db2b497" viewBox="0 0 42 42" style="-webkit-print-color-adjust: exact;" fill="none" version="1.1">
  <g id="shape-3d00cd49-263d-80e5-8002-e9f90db2b497" version="1.0" width="512.000000pt" height="512.000000pt" preserveAspectRatio="xMidYMid meet" rx="0" ry="0" style="fill: rgb(0, 0, 0);">
    <g id="shape-3d00cd49-263d-80e5-8002-e9f90db45254" rx="0" ry="0" style="fill: rgb(0, 0, 0);">
      <g id="shape-3d00cd49-263d-80e5-8002-e9f90db6ccc3">
        <g class="fills" id="fills-3d00cd49-263d-80e5-8002-e9f90db6ccc3">
          <path stroke="none" rx="0" ry="0" d="M20.016,0.049C17.136,0.402,15.045,1.370,13.018,3.281L12.239,4.020L11.813,3.938C10.853,3.757,9.007,3.864,7.777,4.184C7.104,4.356,5.947,4.840,5.291,5.217C0.484,8.031,-1.337,13.945,1.083,18.916C1.961,20.721,3.486,22.378,5.143,23.330L5.734,23.666L5.742,31.090C5.742,39.252,5.734,39.121,6.243,40.007C6.735,40.868,7.637,41.573,8.572,41.844C8.917,41.943,10.869,41.959,21.041,41.959C32.550,41.959,33.116,41.951,33.534,41.811C34.511,41.467,35.273,40.843,35.757,40.007C36.266,39.121,36.258,39.252,36.258,31.090L36.258,23.666L36.857,23.321C42.164,20.237,43.608,13.068,39.933,8.105C37.931,5.398,34.888,3.855,31.574,3.855C31.049,3.855,30.425,3.888,30.188,3.938L29.761,4.020L28.982,3.281C27.243,1.641,25.233,0.591,23.075,0.205C22.345,0.074,20.549,-0.016,20.016,0.049ZZM22.977,2.141C26.209,2.781,28.982,5.258,30.048,8.474C30.302,9.212,30.516,10.361,30.516,10.951C30.516,11.550,30.647,11.936,30.934,12.173C31.434,12.600,32.214,12.338,32.394,11.689C32.484,11.345,32.378,9.967,32.189,9.064C32.017,8.228,31.648,7.186,31.246,6.374L30.926,5.742L31.631,5.742C33.502,5.742,35.528,6.505,37.054,7.785C38.243,8.777,39.367,10.541,39.785,12.059C40.843,15.955,39.022,20.073,35.396,21.960C34.305,22.526,34.412,21.894,34.388,27.571L34.371,32.484L21.016,32.468L7.670,32.443L7.629,27.554C7.580,21.902,7.695,22.526,6.612,21.960C2.978,20.073,1.157,15.963,2.215,12.059C2.633,10.541,3.757,8.777,4.946,7.785C6.472,6.505,8.498,5.742,10.369,5.742L11.074,5.742L10.754,6.374C10.352,7.186,9.983,8.228,9.811,9.064C9.622,9.967,9.516,11.345,9.606,11.689C9.786,12.338,10.566,12.600,11.066,12.173C11.353,11.936,11.484,11.550,11.484,10.951C11.484,10.361,11.698,9.212,11.952,8.474C12.690,6.251,14.290,4.298,16.341,3.134C18.268,2.034,20.631,1.673,22.977,2.141ZZM34.355,36.488C34.330,38.571,34.330,38.604,34.117,39.006C33.854,39.514,33.354,39.908,32.813,40.023C32.222,40.146,9.778,40.146,9.188,40.023C8.646,39.908,8.146,39.514,7.883,39.006C7.670,38.604,7.670,38.571,7.645,36.488L7.621,34.371L21.000,34.371L34.379,34.371L34.355,36.488ZZ" style="fill: rgb(245, 245, 245); fill-opacity: 1;"></path>
        </g>
      </g>
      <g id="shape-3d00cd49-263d-80e5-8002-e9f90db807c9">
        <g class="fills" id="fills-3d00cd49-263d-80e5-8002-e9f90db807c9">
          <path stroke="none" rx="0" ry="0" d="M9.934,19.327C9.795,19.441,9.655,19.655,9.614,19.802C9.442,20.401,9.803,21.738,10.492,23.116C11.222,24.560,12.510,26.389,12.977,26.627C13.322,26.808,13.748,26.709,14.044,26.398C14.380,26.037,14.364,25.577,13.986,25.052C12.354,22.780,11.607,21.312,11.443,20.065C11.329,19.220,10.525,18.826,9.934,19.327ZZ" style="fill: rgb(245, 245, 245); fill-opacity: 1;"></path>
        </g>
      </g>
      <g id="shape-3d00cd49-263d-80e5-8002-e9f90db893ab">
        <g class="fills" id="fills-3d00cd49-263d-80e5-8002-e9f90db893ab">
          <path stroke="none" rx="0" ry="0" d="M20.385,19.384C20.188,19.581,20.098,19.761,20.057,20.024C20.032,20.221,20.016,21.664,20.032,23.231C20.057,25.963,20.065,26.086,20.229,26.307C20.319,26.430,20.541,26.586,20.721,26.652C21.000,26.750,21.082,26.742,21.345,26.636C21.943,26.381,21.943,26.398,21.968,23.215C21.984,21.656,21.968,20.221,21.943,20.024C21.861,19.499,21.468,19.113,21.000,19.113C20.721,19.113,20.606,19.162,20.385,19.384ZZ" style="fill: rgb(245, 245, 245); fill-opacity: 1;"></path>
        </g>
      </g>
      <g id="shape-3d00cd49-263d-80e5-8002-e9f90db8d99c">
        <g class="fills" id="fills-3d00cd49-263d-80e5-8002-e9f90db8d99c">
          <path stroke="none" rx="0" ry="0" d="M30.885,19.384C30.680,19.589,30.598,19.753,30.557,20.065C30.393,21.312,29.646,22.780,28.014,25.052C27.636,25.577,27.620,26.037,27.956,26.398C28.252,26.709,28.678,26.808,29.023,26.627C29.490,26.389,30.778,24.560,31.508,23.116C32.197,21.738,32.558,20.401,32.386,19.802C32.279,19.409,31.886,19.113,31.484,19.113C31.221,19.113,31.098,19.171,30.885,19.384ZZ" style="fill: rgb(245, 245, 245); fill-opacity: 1;"></path>
        </g>
      </g>
    </g>
  </g>
</svg>
